<?xml version="1.0" encoding="UTF-8" standalone="no"?>
<!DOCTYPE svg PUBLIC "-//W3C//DTD SVG 20010904//EN"
"http://www.w3.org/TR/2001/REC-SVG-20010904/DTD/svg10.dtd">
<!-- Created with Sodipodi ("http://www.sodipodi.com/") -->
<svg
   width="370.8px"
   height="367.2px"
   viewBox="-30.9px 455.4px 370.8px 367.2px"
   id="svg548"
   sodipodi:version="0.32"
   sodipodi:docname="cover.svg"
   xmlns="http://www.w3.org/2000/svg"
   xmlns:sodipodi="http://sodipodi.sourceforge.net/DTD/sodipodi-0.dtd"
   xmlns:xlink="http://www.w3.org/1999/xlink">
  <defs
     id="defs633" />
  <sodipodi:namedview
     id="base" />
  <title
     id="title549">
generated by pstoedit version:3.33 from cover.eps</title>
  <g
     fill="#f8f8f8"
     fill-rule="evenodd"
     stroke-width="0"
     stroke-linejoin="miter"
     stroke-linecap="butt"
     stroke-miterlimit="11.4737"
     id="g550"
     transform="translate(24.40254,-457.8380)">
    <path
       d="  M 156.559 745.582   C 214.879 745.582 262.18 698.273 262.18 639.953   C 262.18 581.633 214.879 534.332 156.559 534.332   C 98.2383 534.332 51.0781 581.633 51.0781 639.953   C 51.0781 698.273 98.2383 745.582 156.559 745.582   Z   "
       id="path551" />
  </g>
  <g
     fill="#7f7f7f"
     fill-rule="evenodd"
     stroke-width="0"
     stroke-linejoin="miter"
     stroke-linecap="butt"
     stroke-miterlimit="11.4737"
     id="g554"
     transform="translate(24.40254,-457.8380)">
    <path
       d="  M 109.402 787.648   C 109.789 786.492 110.43 785.723 111.711 785.082   C 112.867 784.57 114.148 784.312 115.305 784.57   L 118.641 785.34   L 124.027 761.992   C 124.156 761.352 124.285 760.711 124.285 760.324   C 124.285 759.555 124.285 758.785 124.027 758.145   L 129.801 759.555   C 129.285 759.941 128.773 760.582 128.516 761.094   C 128.262 761.609 128.262 762.121 128.004 762.891   L 122.617 786.238   L 126.207 787.137   C 127.234 787.391 128.645 787.391 130.055 787.008   L 129.031 791.496   L 113.508 787.906   C 112.867 787.777 111.969 787.777 111.199 787.648   C 111.07 787.648 110.559 787.648 109.402 787.648   Z   M 110.43 787.262   C 111.07 787.137 111.711 787.137 112.227 787.137   C 112.738 787.137 113.25 787.137 113.766 787.262   L 128.516 790.727   L 129.285 787.52   C 128.004 787.906 126.977 788.035 125.824 787.777   L 121.719 786.879   L 127.234 763.02   C 127.363 762.121 127.621 761.48 127.746 761.094   C 127.875 760.711 128.133 760.195 128.391 759.941   L 124.926 759.043   C 125.055 759.555 125.184 760.066 125.055 760.582   C 124.926 761.223 124.926 761.734 124.797 762.379   L 119.281 786.238   L 115.434 785.469   C 114.406 785.211 113.25 785.211 112.227 785.469   C 111.328 785.98 110.688 786.492 110.43 787.262   Z   "
       id="path555" />
  </g>
  <g
     fill="#7f7f7f"
     fill-rule="evenodd"
     stroke-width="0"
     stroke-linejoin="miter"
     stroke-linecap="butt"
     stroke-miterlimit="11.4737"
     id="g556"
     transform="translate(24.40254,-457.8380)">
    <path
       d="  M 84.2617 776.617   C 84.9023 776.359 85.2852 775.848 85.6719 775.332   C 86.0547 774.949 86.4414 774.309 86.6992 773.664   L 96.4453 751.73   C 96.7031 751.219 96.832 750.574 96.9609 750.191   C 97.2188 749.422 97.2188 748.652 97.0898 748.012   L 102.605 750.449   C 101.836 750.703 101.32 751.344 100.938 751.73   C 100.68 752.113 100.422 752.758 100.039 753.398   L 93.2383 768.793   C 93.4961 769.176 93.625 769.688 93.8828 769.945   C 94.1367 770.332 94.5234 770.715 94.9062 770.844   C 95.4219 771.102 96.3203 771.23 97.6016 771.23   C 98.3711 771.355 98.7578 771.484 99.2695 771.742   C 99.6523 771.871 100.039 772.125 100.551 772.254   C 101.066 772.512 101.195 772.895 101.449 773.281   L 108.633 757.246   C 109.02 756.605 109.148 756.09 109.148 755.578   C 109.402 754.938 109.402 754.168 109.273 753.398   L 114.793 755.836   C 114.023 756.219 113.508 756.734 113.125 757.246   C 112.738 757.633 112.609 758.145 112.227 758.785   L 102.477 780.723   C 102.219 781.363 101.965 782.004 101.836 782.516   C 101.707 783.16 101.836 783.93 101.965 784.441   L 96.4453 782.004   C 97.0898 781.875 97.4727 781.234 97.8594 780.977   C 98.2422 780.336 98.6289 779.824 98.8828 779.184   L 99.7812 777   C 99.5273 776.617 99.5273 776.488 99.2695 776.231   C 98.8828 775.977 98.6289 775.848 98.2422 775.59   C 97.6016 775.332 96.9609 775.207 96.4453 775.078   C 94.7812 774.82 93.7539 774.691 93.2383 774.438   C 92.4688 774.051 91.8281 773.539 91.3164 773.023   L 90.2891 775.332   C 90.0312 775.977 89.7773 776.617 89.6484 777   C 89.5195 777.769 89.6484 778.539 89.7773 779.055   L 84.2617 776.617   M 97.7305 749.164   C 97.8594 749.551 97.8594 750.062 97.6016 750.574   C 97.4727 751.09 97.2188 751.602 97.0898 752.113   L 87.3398 773.793   C 87.082 774.438 86.8242 775.207 86.4414 775.59   C 86.3125 775.977 86.0547 776.231 85.543 776.617   L 88.8789 778.027   C 88.8789 777.769 89.0078 777.129 89.1367 776.871   C 89.2617 776.359 89.5195 775.59 89.9062 774.82   L 91.3164 771.613   C 91.6992 772.77 92.5977 773.539 93.3672 773.922   C 94.0117 774.18 94.7812 774.309 95.4219 774.309   C 97.0898 774.562 98.1133 774.82 98.5 774.949   C 99.0117 775.207 99.5273 775.461 99.7812 775.719   C 100.039 775.977 100.297 776.231 100.68 776.871   L 99.5273 779.309   C 99.2695 779.953 99.0117 780.723 98.6289 780.977   C 98.5 781.363 98.2422 781.746 97.7305 782.004   L 101.066 783.414   C 101.066 783.16 101.195 782.645 101.32 782.391   C 101.449 781.746 101.707 781.106 101.965 780.336   L 111.711 758.656   C 111.969 758.016 112.227 757.375 112.355 756.988   C 112.738 756.734 112.996 756.348 113.25 755.965   L 109.918 754.551   C 110.043 755.066 110.043 755.449 109.789 755.965   C 109.66 756.605 109.402 757.117 109.273 757.633   L 101.836 774.438   C 101.32 773.922 100.938 773.41 100.551 773.023   C 100.039 772.77 99.6523 772.512 99.1406 772.254   C 98.5 772 97.6016 772 96.3203 771.742   C 95.5508 771.742 95.0352 771.484 94.5234 771.355   C 94.1367 771.23 93.625 770.973 93.3672 770.457   C 92.9844 770.074 92.7266 769.434 92.4688 768.918   L 99.5273 753.27   C 99.7812 752.629 100.039 751.988 100.168 751.602   C 100.551 751.219 100.809 750.961 101.066 750.574   L 97.7305 749.164   "
       id="path557" />
  </g>
  <g
     fill="#7f7f7f"
     fill-rule="evenodd"
     stroke-width="0"
     stroke-linejoin="miter"
     stroke-linecap="butt"
     stroke-miterlimit="11.4737"
     id="g558"
     transform="translate(24.40254,-457.8380)">
    <path
       d="  M 77.9766 735.184   L 92.9844 745.699   C 92.2148 745.957 91.5742 746.215 91.0586 746.727   C 90.8047 746.984 90.5469 747.496 90.0312 748.012   L 76.3086 767.766   C 75.9219 768.406 75.5391 768.918 75.2812 769.305   C 75.0234 769.945 75.0234 770.715 75.0234 771.355   L 61.4258 761.734   L 64.25 757.633   C 64.5039 758.402 64.8906 759.043 65.0195 759.297   C 65.5312 759.684 65.918 760.195 66.5586 760.711   L 73.1016 765.328   L 74.125 763.918   L 65.6602 757.887   L 67.9688 754.68   L 76.4336 760.711   L 86.5703 746.215   L 78.6172 740.57   C 77.8477 740.055 77.0781 739.672 76.5625 739.543   C 76.3086 739.414 75.793 739.414 75.0234 739.285   L 77.9766 735.184   M 78.1016 736.207   L 76.0508 739.16   C 76.5625 739.031 77.0781 739.031 77.5898 739.285   C 78.1016 739.414 78.6172 739.801 79.2578 740.184   L 87.4688 745.957   L 76.5625 761.48   L 68.0977 755.578   L 66.5586 757.758   L 75.0234 763.66   L 73.2266 766.098   L 66.3008 761.352   C 65.6602 760.84 65.2734 760.324 65.1484 760.066   C 64.7617 759.684 64.5039 759.172 64.25 758.656   L 62.1953 761.609   L 74.2539 770.074   C 74.3828 769.945 74.5117 769.305 74.7695 769.047   C 75.0234 768.535 75.4102 768.023 75.9219 767.254   L 89.5195 747.754   C 89.9062 747.242 90.2891 746.727 90.5469 746.469   C 90.8047 746.086 91.1875 745.828 91.6992 745.699   L 78.1016 736.207   "
       id="path559" />
  </g>
  <g
     fill="#7f7f7f"
     fill-rule="evenodd"
     stroke-width="0"
     stroke-linejoin="miter"
     stroke-linecap="butt"
     stroke-miterlimit="11.4737"
     id="g560"
     transform="translate(24.40254,-457.8380)">
    <path
       d="  M 65.1484 725.816   C 65.5312 725.434 66.043 725.047 66.6875 725.176   C 67.3281 725.176 67.7109 725.434 68.2266 725.816   C 68.6094 726.203 68.7383 726.715 68.8672 727.355   C 68.7383 727.871 68.6094 728.512 68.2266 728.895   C 67.7109 729.281 67.1992 729.539 66.5586 729.539   C 65.918 729.664 65.5312 729.152 65.1484 728.77   C 64.6328 728.383 64.3789 728 64.3789 727.355   C 64.5039 726.715 64.6328 726.203 65.1484 725.816   Z   M 65.5312 726.332   C 65.2734 726.586 65.1484 726.844 65.1484 727.355   C 65.1484 727.742 65.2734 728.125 65.5312 728.383   C 65.7891 728.641 66.1719 728.895 66.5586 728.895   C 67.0703 728.77 67.3281 728.641 67.5859 728.383   C 67.8398 728.125 68.0977 727.613 68.0977 727.355   C 68.0977 727.102 67.9688 726.586 67.7109 726.332   C 67.457 726.074 67.0703 725.945 66.6875 725.816   C 66.1719 725.688 65.7891 726.074 65.5312 726.332   Z   "
       id="path561" />
  </g>
  <g
     fill="#7f7f7f"
     fill-rule="evenodd"
     stroke-width="0"
     stroke-linejoin="miter"
     stroke-linecap="butt"
     stroke-miterlimit="11.4737"
     id="g562"
     transform="translate(24.40254,-457.8380)">
    <path
       d="  M 48.4688 700.289   L 51.6758 705.293   C 51.0352 705.422 50.2656 705.293 49.625 705.551   C 49.2383 705.805 48.7266 705.934 48.0859 706.445   L 43.3398 709.527   L 48.2148 717.094   C 48.5977 716.84 48.9844 716.711 49.625 716.324   C 50.3945 715.812 50.9062 715.426 51.293 715.172   C 52.3203 714.527 53.3438 713.758 53.8594 713.117   C 54.7578 712.477 55.2695 711.965 55.5273 711.195   L 58.8594 716.324   C 58.0898 716.324 57.4492 716.324 56.8086 716.711   C 56.2969 716.965 55.5273 717.223 55.1406 717.48   L 51.1641 720.047   C 48.2148 721.969 44.75 723.25 41.0312 724.023   C 37.0547 724.664 33.5898 724.406 30.2539 723.508   C 26.6641 722.355 24.2266 720.688 22.9414 718.504   C 22.6875 718.25 22.6875 718.121 22.5586 718.121   C 22.4297 717.863 22.3008 717.609 22.3008 717.352   C 22.8125 717.352 23.457 717.352 24.0977 717.223   C 24.6094 716.965 25.125 716.582 25.6367 716.195   L 45.9062 703.113   C 46.418 702.727 46.9297 702.344 47.1875 702.215   C 47.8281 701.574 48.2148 701.059 48.4688 700.289   Z   M 48.4688 701.699   C 48.3438 702.086 47.8281 702.598 47.5742 702.855   C 47.1875 703.113 46.6758 703.496 46.1602 703.754   L 26.1484 716.84   C 25.6367 717.094 25.125 717.48 24.8672 717.609   C 24.3555 717.734 23.9688 717.863 23.3281 718.121   L 23.5859 718.504   C 24.9961 720.559 27.3047 721.969 30.6406 722.996   C 33.8477 723.895 37.1836 723.895 40.9023 723.25   C 44.4922 722.738 47.957 721.457 50.9062 719.531   L 54.7578 716.965   C 55.6523 716.453 56.6797 716.066 57.707 715.941   L 55.3984 712.477   C 55.2695 712.988 54.6289 713.504 54.1133 714.016   C 53.4727 714.527 52.5742 715.172 51.6758 715.684   C 51.0352 716.066 50.3945 716.582 49.3672 717.223   C 48.4688 717.734 47.957 717.992 47.957 717.992   L 42.3125 709.398   L 47.5742 705.934   C 48.0859 705.676 48.7266 705.422 49.1133 705.164   C 49.4961 704.906 50.1367 704.906 50.3945 704.781   L 48.4688 701.699   M 40.1328 710.809   L 45.3906 719.02   C 43.9805 719.531 42.3125 720.047 40.5156 720.43   C 38.0781 720.816 35.8984 720.941 33.8477 720.816   C 31.2812 720.559 29.4844 719.918 27.8164 718.891   L 40.1328 710.809   M 39.875 711.707   L 28.7148 719.02   C 30.125 719.918 31.9219 720.301 34.1016 720.301   C 35.8984 720.43 37.9531 720.43 39.875 720.047   C 41.6719 719.789 43.3398 719.402 44.3672 718.762   L 39.875 711.707   "
       id="path563" />
  </g>
  <g
     fill="#7f7f7f"
     fill-rule="evenodd"
     stroke-width="0"
     stroke-linejoin="miter"
     stroke-linecap="butt"
     stroke-miterlimit="11.4737"
     id="g564"
     transform="translate(24.40254,-457.8380)">
    <path
       d="  M 28.5859 682.973   C 31.6641 681.562 34.6172 681.305 36.668 681.816   C 39.2344 682.586 41.0312 684.254 42.0547 686.562   L 46.418 696.57   C 45.7773 696.312 45.0078 696.312 44.4922 696.441   C 43.8516 696.57 43.3398 696.699 42.6992 697.082   L 20.5039 706.961   C 19.8633 707.219 19.2227 707.473 18.9648 707.73   C 18.3242 708.242 17.8125 708.883 17.4258 709.527   C 16.5273 706.574 16.4023 703.367 17.043 699.777   C 17.5547 696.055 18.8359 692.848 20.7617 689.898   C 22.8125 686.691 25.5078 684.254 28.5859 682.973   Z   M 28.8438 683.742   C 25.8945 685.023 23.457 687.078 21.5312 690.156   C 19.6055 692.723 18.3242 695.93 17.6836 699.52   C 16.9141 702.727 17.043 705.551 17.6836 708.242   C 17.9414 707.73 18.4531 707.473 18.8359 707.219   C 19.2227 706.832 19.8633 706.574 20.3789 706.32   L 42.3125 696.57   C 42.9531 696.312 43.5977 696.055 44.1094 696.055   C 44.4922 695.801 44.8789 695.801 45.3906 695.93   L 41.4141 687.078   C 40.3906 684.77 38.8477 683.23 36.668 682.586   C 34.4883 681.945 31.793 682.332 28.8438 683.742   Z   M 30.125 685.922   C 32.3086 684.895 34.2305 684.641 35.8984 685.281   C 37.4375 685.922 38.4648 686.949 39.2344 688.617   L 41.6719 694.004   L 20.7617 703.242   C 20.3789 700.289 21.0195 697.082 22.8125 693.492   C 24.4805 689.77 27.0469 687.207 30.125 685.922   Z   M 30.5117 686.562   C 27.6875 687.848 25.25 690.156 23.5859 693.492   C 21.918 696.699 21.1484 699.52 21.4023 702.215   L 40.7734 693.621   L 38.5938 688.871   C 37.9531 687.461 37.0547 686.438 35.6406 685.922   C 34.1016 685.539 32.4336 685.664 30.5117 686.562   Z   "
       id="path565" />
  </g>
  <g
     fill="#7f7f7f"
     fill-rule="evenodd"
     stroke-width="0"
     stroke-linejoin="miter"
     stroke-linecap="butt"
     stroke-miterlimit="11.4737"
     id="g566"
     transform="translate(24.40254,-457.8380)">
    <path
       d="  M 3.05859 664.883   C 3.57422 665.141 4.34375 665.398 5.11328 665.527   C 5.75391 665.652 6.39453 665.781 7.16406 665.781   C 9.47266 665.652 11.9102 665.527 14.4766 665.527   C 15.6289 665.527 18.7109 665.398 23.3281 665.27   C 26.0195 665.141 28.457 665.141 30.3828 665.141   C 31.0234 665.012 31.5391 665.141 31.6641 665.012   C 32.3086 665.012 32.8203 664.883 33.332 664.758   C 33.9766 664.629 34.6172 664.371 35 664.113   L 36.5391 670.656   C 36.1562 670.656 35.7695 670.656 35.5156 670.656   C 35 670.656 34.6172 670.785 34.2305 670.785   C 33.8477 670.914 33.332 671.043 33.0781 671.043   C 32.6914 671.297 32.1797 671.426 31.793 671.684   C 30.6406 672.195 28.457 673.094 25.6367 674.379   C 22.1719 675.918 19.3516 677.199 17.5547 678.098   C 15.2461 679.125 12.9375 680.277 10.7578 681.305   C 9.85938 681.688 9.08984 682.203 8.57422 682.586   C 8.0625 682.973 7.67578 683.484 7.42188 683.613   L 5.88281 677.199   C 6.26562 677.457 6.90625 677.586 7.29297 677.457   C 7.80469 677.457 8.32031 677.457 8.96094 677.328   C 9.21484 677.328 9.47266 677.199 9.73047 677.199   C 9.98828 676.941 10.2422 676.941 10.3711 676.941   C 11.5273 676.301 13.0664 675.531 14.8594 674.762   C 18.582 673.094 21.0195 671.941 21.918 671.426   C 24.8672 670.145 26.6641 669.504 27.3047 669.246   C 26.2773 669.246 24.4805 669.504 21.7891 669.504   C 19.0938 669.758 16.2734 669.633 13.707 669.758   C 11.9102 669.887 10.2422 669.887 8.83203 670.016   C 8.19141 669.887 7.67578 669.887 7.03516 670.016   C 6.52344 670.145 6.00781 670.402 5.625 670.656   C 5.23828 670.785 4.85547 671.172 4.46875 671.426   L 3.05859 664.883   M 3.95703 665.91   L 4.85547 670.145   C 5.11328 670.016 5.36719 669.887 5.75391 669.633   C 6.26562 669.633 6.65234 669.504 7.03516 669.375   C 7.42188 669.375 7.80469 669.246 8.0625 669.117   C 8.44531 669.117 8.83203 668.988 9.08984 669.117   L 30.7695 668.348   L 11.0117 677.457   C 10.7578 677.457 10.5 677.586 10.2422 677.711   C 9.85938 677.84 9.60156 677.84 9.34375 677.969   C 8.83203 677.969 8.32031 678.098 7.80469 678.098   C 7.42188 678.227 7.16406 678.227 6.78125 678.098   L 7.67578 682.457   C 8.19141 682.074 8.57422 681.688 8.96094 681.562   C 9.60156 681.047 10.1133 680.918 10.5 680.664   C 12.8086 679.766 14.9883 678.48 17.2969 677.457   C 19.2227 676.559 21.918 675.273 25.5078 673.863   C 28.8438 672.195 31.1523 671.297 31.5391 671.043   C 31.9219 670.785 32.3086 670.656 32.8203 670.527   C 33.207 670.402 33.7188 670.273 34.2305 670.145   C 34.6172 670.016 34.8711 670.016 35.1289 670.016   C 35.2578 669.887 35.5156 670.016 35.6406 670.016   L 34.4883 665.141   C 34.4883 665.27 34.2305 665.27 33.9766 665.398   C 33.7188 665.398 33.5898 665.398 33.5898 665.398   C 33.207 665.527 32.8203 665.652 32.3086 665.781   C 31.793 665.652 31.1523 665.652 30.3828 665.781   L 7.29297 666.426   C 6.78125 666.426 6.13672 666.297 5.49609 666.426   C 4.85547 666.297 4.34375 666.168 3.95703 665.91   Z   "
       id="path567" />
  </g>
  <g
     fill="#7f7f7f"
     fill-rule="evenodd"
     stroke-width="0"
     stroke-linejoin="miter"
     stroke-linecap="butt"
     stroke-miterlimit="11.4737"
     id="g568"
     transform="translate(24.40254,-457.8380)">
    <path
       d="  M 32.0508 637.176   L 33.5898 655.52   C 33.0781 655.137 32.4336 654.879 31.793 654.879   C 31.1523 654.75 30.6406 654.75 29.8711 654.879   L 5.88281 656.93   C 5.11328 657.059 4.46875 657.059 4.21484 657.188   C 3.44531 657.445 2.80078 657.828 2.28906 658.344   L 0.878906 641.664   L 5.88281 641.152   C 5.49609 641.922 5.36719 642.562 5.23828 642.949   C 5.11328 643.461 5.11328 644.102 5.11328 645   L 5.88281 652.953   L 7.55078 652.828   L 6.65234 642.434   L 10.6289 642.051   L 11.5273 652.441   L 29.2266 650.902   L 28.332 641.152   C 28.332 640.254 28.0742 639.484 27.9453 638.844   C 27.8164 638.715 27.4336 638.332 27.0469 637.688   L 32.0508 637.176   M 31.4102 637.945   L 27.8164 638.203   C 28.332 638.715 28.5859 639.102 28.7148 639.613   C 28.8438 640 28.9727 640.641 28.9727 641.41   L 29.8711 651.543   L 10.8828 653.211   L 9.98828 642.82   L 7.29297 642.949   L 8.19141 653.34   L 5.23828 653.598   L 4.46875 645.129   C 4.46875 644.359 4.59766 643.719 4.59766 643.332   C 4.72656 642.82 4.98438 642.434 5.11328 641.922   L 1.51953 642.18   L 2.80078 656.93   C 3.05859 656.805 3.57422 656.676 3.95703 656.676   C 4.46875 656.418 5.11328 656.418 6.00781 656.289   L 29.7422 654.238   C 30.3828 654.238 31.0234 654.109 31.5391 654.238   C 31.9219 654.238 32.4336 654.238 32.8203 654.492   L 31.4102 637.945   "
       id="path569" />
  </g>
  <g
     fill="#7f7f7f"
     fill-rule="evenodd"
     stroke-width="0"
     stroke-linejoin="miter"
     stroke-linecap="butt"
     stroke-miterlimit="11.4737"
     id="g570"
     transform="translate(24.40254,-457.8380)">
    <path
       d="  M 35 614.727   L 34.2305 620.629   C 33.7188 620.113 33.207 619.73 32.5625 619.602   C 32.0508 619.344 31.5391 619.344 30.7695 619.219   L 23.0703 618.32   L 9.34375 626.145   L 29.6133 628.582   C 30.3828 628.711 30.8945 628.711 31.2812 628.711   C 32.0508 628.582 32.8203 628.324 33.332 627.941   L 32.5625 633.969   C 32.1797 633.457 31.5391 633.07 30.8945 632.941   C 30.3828 632.688 29.8711 632.688 29.1016 632.559   L 5.23828 629.609   C 4.46875 629.609 3.82812 629.48 3.44531 629.609   C 2.67578 629.609 2.03125 629.863 1.39062 630.25   L 2.28906 623.707   C 2.54688 623.836 2.92969 623.836 3.31641 623.965   C 3.69922 623.965 4.08594 624.09 4.59766 623.965   C 4.85547 623.836 5.23828 623.836 5.49609 623.707   C 6.90625 622.938 8.32031 622.039 9.73047 621.27   C 10.1133 621.141 11.5273 620.371 13.707 619.09   C 14.6055 618.574 15.5039 618.062 16.4023 617.422   L 6.90625 616.266   C 6.13672 616.266 5.49609 616.137 5.11328 616.266   C 4.34375 616.266 3.57422 616.523 3.05859 616.906   L 3.82812 611.008   C 4.34375 611.391 4.85547 611.777 5.49609 611.906   C 6.13672 612.16 6.78125 612.418 7.42188 612.418   L 31.2812 615.367   C 31.9219 615.496 32.5625 615.367 32.9492 615.496   C 33.7188 615.367 34.3594 615.113 35 614.727   Z   M 34.2305 615.883   C 33.7188 616.137 33.207 616.137 32.6914 616.137   C 32.1797 616.137 31.5391 616.012 31.0234 616.012   L 7.42188 613.059   C 6.65234 613.059 5.88281 612.93 5.49609 612.805   C 4.98438 612.676 4.59766 612.547 4.34375 612.16   L 3.82812 615.625   C 4.08594 615.625 4.59766 615.496 4.98438 615.496   C 5.625 615.496 6.39453 615.625 7.29297 615.754   L 18.4531 617.035   C 17.6836 617.551 17.1719 617.934 16.4023 618.191   C 14.7344 619.219 13.0664 620.242 11.3984 621.141   C 9.73047 622.168 7.80469 623.066 5.625 624.219   C 5.36719 624.477 4.98438 624.477 4.59766 624.605   C 4.21484 624.734 3.69922 624.734 3.31641 624.734   C 3.1875 624.734 3.05859 624.734 2.80078 624.477   L 2.28906 628.965   C 2.54688 628.965 3.05859 628.836 3.44531 628.836   C 3.95703 628.836 4.59766 628.965 5.49609 628.965   L 29.1016 631.918   C 29.8711 632.043 30.5117 632.043 30.8945 632.172   C 31.4102 632.301 31.793 632.559 32.1797 632.688   L 32.5625 629.094   C 32.1797 629.352 31.6641 629.352 31.1523 629.352   C 30.3828 629.352 29.8711 629.223 29.2266 629.223   L 7.16406 626.527   L 23.0703 617.676   L 30.7695 618.574   C 31.5391 618.703 32.1797 618.703 32.5625 618.832   C 32.9492 618.961 33.332 619.219 33.7188 619.344   L 34.2305 615.883   "
       id="path571" />
  </g>
  <g
     fill="#7f7f7f"
     fill-rule="evenodd"
     stroke-width="0"
     stroke-linejoin="miter"
     stroke-linecap="butt"
     stroke-miterlimit="11.4737"
     id="g572"
     transform="translate(24.40254,-457.8380)">
    <path
       d="  M 11.1406 583.555   C 12.168 583.812 12.9375 584.711 13.5781 585.992   C 13.9648 587.148 14.0898 588.43 13.707 589.586   L 12.6797 592.793   L 35.5156 600.23   C 36.1562 600.359 36.668 600.617 37.0547 600.617   C 37.8242 600.746 38.5938 600.617 39.2344 600.359   L 37.4375 606.004   C 36.9258 605.492 36.4102 605.105 35.7695 604.723   C 35.3867 604.465 35 604.336 34.2305 604.078   L 11.3984 596.641   L 10.2422 600.23   C 9.85938 601.258 9.73047 602.539 9.98828 603.953   L 5.49609 602.539   L 10.3711 587.402   C 10.6289 586.762 10.7578 585.992 11.0117 585.094   C 11.0117 585.094 11.0117 584.582 11.1406 583.555   Z   M 11.3984 584.453   C 11.3984 585.223 11.3984 585.734 11.3984 586.121   C 11.3984 586.762 11.1406 587.273 11.0117 587.789   L 6.39453 602.156   L 9.60156 603.184   C 9.21484 601.898 9.21484 600.871 9.47266 599.719   L 10.8828 595.742   L 34.2305 603.309   C 35.1289 603.566 35.5156 603.953 35.8984 604.078   C 36.2852 604.207 36.7969 604.465 37.0547 604.723   L 38.207 601.387   C 37.8242 601.387 37.1836 601.516 36.668 601.387   C 36.1562 601.129 35.6406 601.129 35 600.871   L 11.6523 593.305   L 12.8086 589.586   C 13.1953 588.559 13.1953 587.531 13.0664 586.379   C 12.6797 585.609 12.168 584.836 11.3984 584.453   Z   "
       id="path573" />
  </g>
  <g
     fill="#7f7f7f"
     fill-rule="evenodd"
     stroke-width="0"
     stroke-linejoin="miter"
     stroke-linecap="butt"
     stroke-miterlimit="11.4737"
     id="g574"
     transform="translate(24.40254,-457.8380)">
    <path
       d="  M 51.4219 573.934   C 49.4961 576.883 46.2891 578.809 42.4414 580.348   C 38.7227 581.887 35 582.785 31.1523 582.785   C 27.4336 583.043 24.2266 582.402 21.7891 581.246   C 21.0195 580.859 20.1211 580.348 19.6055 579.965   C 18.9648 579.449 18.4531 579.066 18.3242 578.551   C 17.9414 578.168 17.4258 577.91 17.1719 577.527   C 16.7852 577.398 16.5273 577.012 16.1445 576.883   C 15.8867 576.758 15.6289 576.629 15.5039 576.5   C 15.375 576.5 14.9883 576.5 14.7344 576.5   L 17.6836 570.598   C 18.3242 572.012 18.9648 573.293 19.4805 574.062   C 20.3789 575.344 21.2734 576.242 22.5586 576.883   C 24.7383 578.039 27.3047 578.422 29.8711 578.68   C 32.3086 578.809 34.7461 578.422 37.1836 577.652   C 39.3633 577.27 41.2852 576.371 42.5703 575.344   L 24.2266 565.98   C 23.5859 565.598 22.9414 565.34 22.5586 565.34   C 21.7891 565.082 21.1484 565.211 20.5039 565.211   L 23.1992 559.953   C 23.5859 560.465 23.9688 560.977 24.4805 561.363   C 24.9961 561.746 25.3789 562.262 26.0195 562.516   L 47.5742 573.551   C 48.2148 573.805 48.8555 573.934 49.4961 574.191   C 50.0117 574.191 50.6523 574.32 51.4219 573.934   Z   M 50.1367 574.832   C 49.4961 574.832 49.2383 574.703 48.5977 574.574   C 48.2148 574.445 47.5742 574.191 47.1875 573.934   L 25.8945 563.031   C 25.125 562.645 24.4805 562.391 24.0977 562.133   C 23.7109 561.875 23.457 561.492 23.3281 561.234   L 21.6602 564.441   C 21.918 564.441 22.4297 564.57 22.8125 564.699   C 23.1992 564.824 23.8398 565.082 24.6094 565.469   L 43.8516 575.344   C 42.4414 576.371 40.3906 577.398 38.0781 578.168   C 35.5156 579.195 32.9492 579.449 30.2539 579.32   C 27.3047 579.32 24.7383 578.68 22.5586 577.527   C 21.2734 576.883 20.3789 576.113 19.4805 574.961   C 18.9648 574.062 18.3242 573.164 17.9414 571.754   L 15.7578 575.988   C 15.8867 576.113 16.2734 576.242 16.5273 576.371   C 16.9141 576.629 17.4258 576.883 17.8125 577.012   C 17.9414 577.398 18.4531 577.652 18.582 578.168   C 18.9648 578.68 19.6055 579.066 20.1211 579.578   C 20.7617 579.836 21.5312 580.219 22.1719 580.605   C 24.4805 581.758 27.3047 582.273 31.0234 582.273   C 34.6172 582.016 38.207 581.504 41.543 580.219   C 45.3906 578.68 48.3438 576.758 50.1367 574.832   Z   "
       id="path575" />
  </g>
  <g
     fill="#7f7f7f"
     fill-rule="evenodd"
     stroke-width="0"
     stroke-linejoin="miter"
     stroke-linecap="butt"
     stroke-miterlimit="11.4737"
     id="g576"
     transform="translate(24.40254,-457.8380)">
    <path
       d="  M 65.4023 554.949   L 61.4258 560.207   C 61.2969 560.078 61.043 559.824 61.043 559.566   C 60.6562 559.309 60.5273 558.926 60.2734 558.797   C 60.0156 558.539 59.6289 558.414 59.2461 558.285   C 58.8594 558.156 58.4766 558.027 58.2188 557.898   C 56.9375 557.516 55.2695 557.129 53.8594 556.617   C 53.4727 556.488 52.0625 555.977 49.625 555.207   C 47.957 554.562 46.9297 554.18 46.9297 554.18   L 48.7266 560.465   L 53.8594 564.312   C 54.3711 564.699 54.8828 565.082 55.3984 565.211   C 55.9102 565.598 56.6797 565.598 57.4492 565.598   L 53.8594 570.469   C 53.6016 569.699 53.2148 569.188 52.832 568.676   C 52.4453 568.289 52.0625 567.906 51.4219 567.52   L 32.3086 553.023   C 31.6641 552.641 31.1523 552.125 30.8945 552.125   C 30.125 551.742 29.3555 551.613 28.8438 551.742   L 36.9258 540.836   C 37.6953 539.941 38.3359 539.297 39.1055 539.043   C 40.0039 538.656 40.7734 539.043 41.543 539.684   C 42.0547 540.066 42.4414 540.582 42.8242 541.094   C 43.082 541.609 43.3398 542.25 43.7227 543.148   C 43.8516 543.918 44.2383 545.07 44.75 546.867   C 44.8789 547.637 45.3906 548.535 45.5195 549.688   C 46.1602 549.816 47.3164 550.332 48.7266 550.715   C 51.4219 551.613 53.3438 552.254 54.3711 552.512   C 56.2969 553.152 58.2188 553.793 60.1445 554.309   C 61.043 554.562 61.9414 554.691 62.9648 554.949   C 63.4805 554.949 64.25 554.949 65.4023 554.949   Z   M 64.3789 555.332   C 63.6094 555.461 62.9648 555.461 62.4531 555.332   C 61.4258 555.332 60.7852 555.207 59.8867 554.949   C 58.6055 554.562 56.4219 553.922 53.6016 552.895   C 51.8047 552.254 49.7539 551.613 47.5742 550.973   C 46.8047 550.844 45.7773 550.332 45.0078 550.074   L 43.082 543.402   C 42.8242 542.633 42.5703 541.992 42.3125 541.48   C 41.9297 540.836 41.6719 540.582 41.1602 540.195   C 40.5156 539.684 39.875 539.426 39.3633 539.684   C 38.5938 539.941 38.0781 540.453 37.4375 541.223   L 30.125 551.102   C 30.2539 551.102 30.7695 551.227 31.1523 551.484   C 31.5391 551.613 32.0508 552.125 32.8203 552.641   L 51.6758 566.879   C 52.3203 567.391 52.832 567.777 53.2148 567.906   C 53.6016 568.418 53.7305 568.805 54.1133 569.059   L 56.168 566.109   C 55.6523 566.238 55.2695 565.98 54.8828 565.723   C 54.3711 565.34 53.8594 564.953 53.3438 564.699   L 48.2148 560.723   L 45.9062 553.281   C 46.5469 553.539 47.3164 553.664 47.957 553.922   C 50.0117 554.691 51.6758 555.207 52.9609 555.59   C 55.1406 556.359 56.9375 556.871 58.3477 557.258   C 58.8594 557.387 59.1172 557.516 59.5039 557.641   C 59.8867 557.898 60.4023 558.027 60.6562 558.285   C 61.043 558.539 61.2969 558.926 61.4258 559.184   L 64.3789 555.332   M 39.6172 544.43   C 40.0039 544.812 40.2617 544.941 40.6445 545.457   C 40.7734 545.84 40.9023 546.227 41.2852 546.609   C 41.6719 548.406 42.1836 550.074 42.6992 551.355   C 43.082 552.895 43.4688 554.562 43.9805 555.977   C 44.1094 556.746 44.3672 557.516 44.6211 558.027   L 33.7188 549.945   L 37.1836 545.328   C 37.6953 544.688 38.207 544.301 38.4648 544.043   C 38.8477 544.043 39.2344 544.172 39.6172 544.43   Z   M 39.3633 545.07   C 38.9766 544.812 38.8477 544.812 38.7227 544.812   C 38.4648 544.941 38.207 545.199 37.8242 545.711   L 34.7461 549.816   L 43.4688 556.359   C 43.3398 556.359 43.082 555.332 42.6992 553.793   C 42.3125 552.641 41.8008 551.355 41.6719 550.203   C 41.0312 548.535 40.6445 547.25 40.5156 546.867   C 40.5156 546.48 40.1328 546.098 40.0039 545.84   C 39.875 545.457 39.4922 545.199 39.3633 545.07   Z   "
       id="path577" />
  </g>
  <g
     fill="#7f7f7f"
     fill-rule="evenodd"
     stroke-width="0"
     stroke-linejoin="miter"
     stroke-linecap="butt"
     stroke-miterlimit="11.4737"
     id="g578"
     transform="translate(24.40254,-457.8380)">
    <path
       d="  M 81.4375 541.223   L 67.5859 553.281   C 67.5859 552.512 67.3281 552 66.9414 551.355   C 66.8125 550.844 66.4297 550.457 65.918 549.816   L 50.1367 531.73   C 49.7539 531.215 49.2383 530.703 48.8555 530.574   C 48.2148 530.062 47.5742 529.805 46.9297 529.676   L 59.5039 518.645   L 62.8359 522.492   C 62.0664 522.75 61.4258 522.879 61.043 523.008   C 60.5273 523.391 60.0156 523.648 59.375 524.16   L 53.3438 529.422   L 54.3711 530.703   L 62.1953 523.906   L 64.8906 526.855   L 57.0664 533.652   L 68.6094 546.996   L 76.0508 540.582   C 76.6914 540.066 77.207 539.426 77.5898 538.914   C 77.5898 538.785 77.8477 538.145 78.1016 537.504   L 81.4375 541.223   M 80.4141 541.223   L 78.1016 538.527   C 77.9766 539.172 77.8477 539.555 77.5898 539.941   C 77.207 540.324 76.8203 540.836 76.1797 541.352   L 68.4805 547.895   L 56.0391 533.527   L 63.9922 526.727   L 62.3242 524.676   L 54.3711 531.473   L 52.3203 529.293   L 58.7344 523.777   C 59.375 523.262 60.0156 523.008 60.4023 522.75   C 60.7852 522.492 61.2969 522.492 61.8125 522.367   L 59.5039 519.672   L 48.3438 529.293   C 48.5977 529.422 49.1133 529.805 49.3672 530.062   C 49.7539 530.32 50.2656 530.832 50.7812 531.473   L 66.3008 549.434   C 66.8125 549.816 67.1992 550.332 67.457 550.844   C 67.7109 551.102 67.8398 551.484 67.9688 552.125   L 80.4141 541.223   "
       id="path579" />
  </g>
  <g
     fill="#7f7f7f"
     fill-rule="evenodd"
     stroke-width="0"
     stroke-linejoin="miter"
     stroke-linecap="butt"
     stroke-miterlimit="11.4737"
     id="g580"
     transform="translate(24.40254,-457.8380)">
    <path
       d="  M 100.809 529.035   L 95.0352 532.5   C 94.9062 532.242 94.9062 531.988 94.9062 531.602   C 94.7812 531.344 94.6523 530.961 94.5234 530.703   C 94.3945 530.445 94.0117 530.062 93.8828 529.805   C 93.4961 529.551 93.2383 529.293 92.9844 529.164   C 91.957 528.137 90.5469 527.238 89.5195 526.344   C 89.1367 525.957 88.1094 525.059 86.1836 523.391   C 84.6445 522.109 84.0039 521.469 84.0039 521.469   L 83.2344 528.012   L 86.5703 533.398   C 86.9531 534.039 87.2109 534.551 87.5977 534.809   C 88.1094 535.449 88.6211 535.707 89.3906 535.965   L 84.1328 539.043   C 84.2617 538.402 84.2617 537.758 83.875 536.988   C 83.7461 536.605 83.4922 536.219 83.1055 535.449   L 70.793 514.926   C 70.4062 514.285 70.0195 513.77 69.7656 513.387   C 69.25 512.871 68.6094 512.488 67.9688 512.23   L 79.6406 505.176   C 80.668 504.664 81.5664 504.406 82.207 504.406   C 83.1055 504.406 83.875 504.918 84.3906 505.816   C 84.6445 506.332 84.9023 507.102 85.0312 507.742   C 85.0312 508.254 85.0312 509.023 85.0312 509.922   C 84.9023 510.691 84.7734 512.102 84.5156 513.77   C 84.5156 514.668 84.6445 515.695 84.2617 516.723   C 84.9023 517.234 85.8008 518.004 86.9531 518.773   C 89.0078 520.699 90.5469 521.98 91.4453 522.621   C 92.9844 523.906 94.5234 525.188 96.1914 526.469   C 96.832 527.113 97.7305 527.496 98.3711 528.137   C 98.8828 528.395 99.7812 528.652 100.809 529.035   Z   M 99.5273 529.035   C 98.8828 528.906 98.3711 528.523 97.8594 528.266   C 97.0898 527.883 96.3203 527.496 95.6758 526.984   C 94.6523 526.215 92.8555 524.676 90.6758 522.75   C 89.2617 521.469 87.3398 520.184 85.8008 518.773   C 85.0312 518.133 84.3906 517.492 83.6172 516.848   L 84.3906 510.051   C 84.5156 509.281 84.5156 508.383 84.3906 507.871   C 84.2617 507.227 84.1328 506.715 83.875 506.203   C 83.4922 505.562 82.8477 505.176 82.3359 505.176   C 81.4375 505.047 80.668 505.434 79.8984 505.816   L 69.3789 512.23   C 69.6367 512.23 70.0195 512.746 70.2773 513   C 70.6641 513.387 71.0469 513.898 71.4336 514.668   L 83.7461 535.066   C 84.1328 535.707 84.3906 536.219 84.6445 536.605   C 84.7734 537.117 84.7734 537.504 84.9023 537.887   L 87.9805 535.965   C 87.4688 535.836 87.082 535.449 86.8242 535.066   C 86.5703 534.551 86.3125 534.039 86.0547 533.652   L 82.5938 528.012   L 83.3633 520.184   C 83.875 520.699 84.5156 521.211 85.0312 521.723   C 86.6992 523.008 87.9805 524.031 89.0078 525.059   C 90.8047 526.469 92.2148 527.625 93.4961 528.523   C 93.625 528.906 94.0117 529.035 94.2656 529.422   C 94.5234 529.676 94.9062 530.062 95.0352 530.32   C 95.293 530.703 95.4219 531.215 95.4219 531.473   L 99.5273 529.035   M 80.7969 509.539   C 81.0547 510.051 81.3086 510.309 81.3086 510.949   C 81.4375 511.332 81.3086 511.848 81.5664 512.23   C 81.3086 514.156 81.0547 515.824 81.0547 517.234   C 80.7969 518.902 80.5391 520.57 80.5391 522.109   C 80.5391 522.75 80.2852 523.52 80.2852 524.16   L 73.3555 512.488   L 78.2305 509.539   C 79 509.023 79.5156 508.895 79.8984 509.023   C 80.2852 508.895 80.5391 509.152 80.7969 509.539   Z   M 80.2852 510.051   C 80.0273 509.793 80.0273 509.664 79.7695 509.664   C 79.5156 509.664 79.1289 509.922 78.6172 510.18   L 74.2539 512.871   L 79.8984 522.238   C 79.7695 522.109 79.8984 521.082 80.1562 519.414   C 80.1562 518.262 80.2852 516.977 80.5391 515.824   C 80.5391 513.898 80.7969 512.746 80.668 512.23   C 80.7969 511.848 80.7969 511.461 80.668 511.078   C 80.5391 510.691 80.4141 510.309 80.2852 510.051   Z   "
       id="path581" />
  </g>
  <g
     fill="#7f7f7f"
     fill-rule="evenodd"
     stroke-width="0"
     stroke-linejoin="miter"
     stroke-linecap="butt"
     stroke-miterlimit="11.4737"
     id="g582"
     transform="translate(24.40254,-457.8380)">
    <path
       d="  M 110.688 496.066   C 110.043 495.941 109.402 495.812 109.02 495.941   C 108.633 495.941 108.121 495.941 107.734 496.066   C 107.094 496.453 106.711 496.836 106.453 497.605   C 106.324 498.25 106.324 498.891 106.582 499.531   C 106.836 500.301 107.609 501.586 108.633 502.867   C 109.531 504.148 110.559 505.562 111.457 506.973   C 112.48 508.383 113.379 509.664 113.895 511.078   C 115.305 514.41 115.176 517.617 113.895 520.441   C 112.48 523.52 110.301 525.445 107.094 526.727   C 106.453 526.984 105.941 527.238 105.172 527.367   C 104.527 527.625 103.758 527.883 103.117 528.137   L 101.195 523.52   C 102.219 523.648 102.988 523.648 103.758 523.52   C 104.402 523.391 104.914 523.137 105.812 522.879   C 107.863 521.98 109.273 520.57 109.918 518.516   C 110.301 516.723 110.301 514.668 109.402 512.488   C 108.762 511.078 108.121 509.664 107.094 508.254   C 106.066 506.844 105.297 505.688 104.402 504.535   C 103.375 503.125 102.605 501.84 102.219 500.941   C 101.578 499.402 101.578 497.734 102.09 496.324   C 102.734 494.527 104.016 493.375 105.941 492.605   C 106.453 492.477 106.965 492.219 107.352 492.09   C 107.863 491.965 108.379 491.836 108.891 491.578   L 110.688 496.066   M 109.789 495.555   L 108.379 492.348   C 108.121 492.477 107.609 492.734 107.352 492.734   C 106.836 492.859 106.453 492.988 106.066 493.117   C 104.402 493.887 103.375 495.043 102.734 496.453   C 102.09 497.863 102.219 499.402 102.859 500.812   C 103.246 501.711 104.016 502.996 104.914 504.406   C 105.812 505.562 106.836 506.973 107.863 508.254   C 108.762 509.664 109.402 511.078 109.918 512.359   C 110.816 514.668 111.07 516.848 110.559 518.902   C 109.789 520.953 108.379 522.367 106.195 523.262   C 105.297 523.648 104.785 523.906 104.145 523.906   C 103.504 524.16 103.117 524.289 102.219 524.16   L 103.504 527.367   C 104.016 527.367 104.402 527.238 105.172 526.984   C 105.941 526.855 106.453 526.598 106.965 526.469   C 109.918 525.188 111.969 523.008 113.25 520.312   C 114.535 517.363 114.406 514.285 113.25 511.207   C 112.609 509.793 111.969 508.512 110.941 507.102   C 109.918 505.688 108.891 504.277 107.992 502.996   C 107.094 501.586 106.324 500.43 105.941 499.531   C 105.684 498.762 105.684 498.121 105.684 497.352   C 105.941 496.711 106.582 495.941 107.223 495.684   C 107.734 495.555 108.121 495.426 108.633 495.426   C 108.762 495.555 109.273 495.426 109.789 495.555   Z   "
       id="path583" />
  </g>
  <g
     fill="#7f7f7f"
     fill-rule="evenodd"
     stroke-width="0"
     stroke-linejoin="miter"
     stroke-linecap="butt"
     stroke-miterlimit="11.4737"
     id="g584"
     transform="translate(24.40254,-457.8380)">
    <path
       d="  M 136.469 516.078   C 136.469 516.594 136.344 517.363 136.086 517.746   C 135.699 518.262 135.316 518.262 134.676 518.391   C 134.16 518.516 133.52 518.645 133.008 518.262   C 132.492 518.004 132.109 517.363 132.109 516.848   C 131.98 516.207 132.109 515.695 132.492 515.184   C 132.75 514.668 133.391 514.41 133.906 514.285   C 134.547 514.156 135.059 514.285 135.574 514.668   C 135.957 515.055 136.344 515.438 136.469 516.078   Z   M 135.828 516.207   C 135.699 515.824 135.574 515.438 135.188 515.184   C 134.805 514.926 134.418 514.926 134.031 514.926   C 133.648 515.055 133.262 515.184 133.008 515.566   C 132.879 515.953 132.75 516.336 132.879 516.723   C 132.879 517.105 133.137 517.492 133.391 517.746   C 133.648 517.875 134.16 518.004 134.547 517.875   C 134.93 517.875 135.188 517.617 135.445 517.363   C 135.828 516.977 135.828 516.594 135.828 516.207   Z   "
       id="path585" />
  </g>
  <g
     fill="#7f7f7f"
     fill-rule="evenodd"
     stroke-width="0"
     stroke-linejoin="miter"
     stroke-linecap="butt"
     stroke-miterlimit="11.4737"
     id="g586"
     transform="translate(24.40254,-457.8380)">
    <path
       d="  M 169.055 517.234   C 163.41 516.078 158.664 513.258 154.941 509.281   C 150.836 504.918 149.043 500.301 149.043 495.297   C 149.172 492.348 150.066 489.91 151.863 488.113   C 153.789 486.445 156.098 485.805 158.918 485.805   L 166.23 485.934   L 166.102 491.578   C 164.051 490.297 161.871 489.527 159.945 489.527   C 158.023 489.527 156.609 490.039 155.328 491.066   C 154.043 492.219 153.402 493.758 153.273 495.684   C 153.273 498.633 154.559 501.586 156.867 504.918   C 159.047 507.871 161.484 510.051 164.051 511.332   L 164.309 497.992   C 164.309 497.223 164.309 496.582 164.18 496.195   C 164.051 495.426 163.922 494.785 163.41 494.273   L 169.438 494.273   C 169.055 494.914 168.539 495.555 168.414 496.195   C 168.414 496.582 168.285 497.223 168.285 497.992   L 168.027 513.258   C 168.027 514.156 168.285 515.184 168.539 516.336   C 168.668 516.594 168.797 517.105 169.055 517.234   Z   M 168.027 516.723   C 167.898 516.207 167.641 515.566 167.641 514.926   C 167.516 514.285 167.387 513.641 167.387 513.129   L 167.641 498.121   C 167.641 497.223 167.641 496.582 167.77 496.195   C 167.77 495.812 167.898 495.426 168.156 494.914   L 164.691 494.914   C 164.691 495.172 164.82 495.684 164.82 496.066   C 164.949 496.582 164.949 497.223 164.949 498.121   L 164.691 512.23   C 162.895 511.59 160.973 510.18 159.176 508.383   C 157.25 506.586 155.586 504.535 154.43 502.355   C 153.273 499.918 152.633 497.734 152.633 495.684   C 152.762 493.504 153.531 491.836 154.816 490.551   C 156.098 489.398 157.766 488.758 159.688 488.758   C 160.715 488.758 161.613 489.012 162.641 489.398   C 163.664 489.781 164.562 490.168 165.461 490.809   L 165.59 486.574   L 158.918 486.445   C 156.227 486.445 154.172 487.09 152.379 488.758   C 150.711 490.297 149.812 492.605 149.684 495.297   C 149.684 498.504 150.582 501.586 152.25 504.535   C 153.918 507.355 155.969 509.922 158.918 512.102   C 161.742 514.156 164.82 515.695 168.027 516.723   Z   "
       id="path587" />
  </g>
  <g
     fill="#7f7f7f"
     fill-rule="evenodd"
     stroke-width="0"
     stroke-linejoin="miter"
     stroke-linecap="butt"
     stroke-miterlimit="11.4737"
     id="g588"
     transform="translate(24.40254,-457.8380)">
    <path
       d="  M 191.887 522.238   C 188.68 521.211 185.988 518.773 183.422 515.184   C 181.238 512.102 179.445 508.77 178.547 504.918   C 177.262 501.328 177.137 498.121 177.777 495.426   C 177.906 494.527 178.16 493.629 178.418 493.117   C 178.676 492.348 179.059 491.707 179.316 491.449   C 179.699 490.938 179.957 490.422 180.215 490.039   C 180.215 489.652 180.469 489.27 180.598 488.883   C 180.598 488.758 180.727 488.5 180.727 488.242   C 180.727 488.113 180.727 487.73 180.598 487.473   L 187.012 489.012   C 185.73 489.91 184.703 490.809 184.062 491.578   C 183.164 492.734 182.395 493.887 182.137 495.172   C 181.625 497.605 181.625 500.043 182.137 502.738   C 182.652 505.047 183.676 507.355 184.703 509.539   C 185.859 511.59 187.141 513.129 188.426 514.285   L 193.043 494.145   C 193.172 493.375 193.297 492.734 193.297 492.348   C 193.297 491.707 193.043 490.938 192.785 490.297   L 198.688 491.707   C 198.172 492.219 197.789 492.734 197.531 493.117   C 197.273 493.758 197.02 494.402 196.891 495.043   L 191.375 518.645   C 191.246 519.285 191.246 519.93 191.246 520.57   C 191.246 521.211 191.375 521.852 191.887 522.238   Z   M 190.734 521.469   C 190.734 520.953 190.734 520.441 190.734 519.93   C 190.734 519.414 190.859 518.773 190.988 518.262   L 196.379 495.043   C 196.504 494.145 196.633 493.504 196.891 493.117   C 197.02 492.605 197.273 492.348 197.402 492.09   L 193.941 491.32   C 194.066 491.578 194.066 491.965 193.941 492.348   C 193.941 492.859 193.812 493.504 193.684 494.402   L 188.809 515.438   C 187.27 514.285 185.859 512.617 184.574 510.434   C 183.164 508.383 182.266 505.816 181.625 503.25   C 180.855 500.43 180.855 497.734 181.367 495.297   C 181.754 494.016 182.266 492.859 183.164 491.707   C 183.934 490.938 184.703 490.039 185.859 489.398   L 181.367 488.371   C 181.367 488.629 181.238 488.883 181.238 489.141   C 181.113 489.652 180.984 490.168 180.727 490.551   C 180.598 490.809 180.344 491.32 179.957 491.707   C 179.574 492.09 179.316 492.734 179.059 493.504   C 178.676 494.145 178.547 494.914 178.418 495.684   C 177.777 498.25 178.035 501.07 178.93 504.535   C 179.957 508.125 181.496 511.461 183.422 514.539   C 185.988 517.746 188.426 520.184 190.734 521.469   Z   "
       id="path589" />
  </g>
  <g
     fill="#7f7f7f"
     fill-rule="evenodd"
     stroke-width="0"
     stroke-linejoin="miter"
     stroke-linecap="butt"
     stroke-miterlimit="11.4737"
     id="g590"
     transform="translate(24.40254,-457.8380)">
    <path
       d="  M 201.508 526.086   L 195.863 523.777   C 196.504 523.648 197.02 523.008 197.402 522.621   C 197.66 522.109 197.918 521.598 198.172 520.953   L 207.152 498.633   C 207.41 497.992 207.664 497.352 207.664 496.965   C 207.922 496.195 207.664 495.426 207.539 494.785   L 213.184 497.094   C 212.539 497.605 212.156 497.992 211.77 498.379   C 211.387 499.02 211.129 499.66 210.871 500.172   L 201.895 522.492   C 201.637 523.008 201.379 523.648 201.25 524.031   C 201.125 524.676 201.25 525.574 201.508 526.086   Z   M 200.609 525.059   C 200.48 524.676 200.609 524.031 200.738 523.648   C 200.867 523.137 201.125 522.492 201.25 522.109   L 210.23 500.043   C 210.488 499.402 210.746 498.633 211 498.25   C 211.258 497.734 211.516 497.605 211.898 497.223   L 208.562 495.941   C 208.562 496.195 208.562 496.711 208.438 497.094   C 208.18 497.605 207.922 498.25 207.664 499.02   L 198.688 521.082   C 198.43 521.723 198.172 522.367 198.043 522.75   C 197.918 523.137 197.531 523.391 197.273 523.777   L 200.609 525.059   "
       id="path591" />
  </g>
  <g
     fill="#7f7f7f"
     fill-rule="evenodd"
     stroke-width="0"
     stroke-linejoin="miter"
     stroke-linecap="butt"
     stroke-miterlimit="11.4737"
     id="g592"
     transform="translate(24.40254,-457.8380)">
    <path
       d="  M 220.238 535.32   L 205.742 527.625   C 206.254 527.367 206.895 526.984 207.281 526.469   C 207.664 526.086 207.922 525.574 208.309 524.93   L 219.469 503.766   C 219.852 502.996 220.238 502.48 220.238 502.098   C 220.492 501.328 220.367 500.688 220.367 500.043   L 225.625 502.867   C 224.469 503.637 223.574 504.664 222.93 505.688   L 211.898 526.469   L 218.699 530.062   C 219.723 530.574 220.879 530.832 222.547 530.961   L 220.238 535.32   M 219.723 534.422   L 221.391 531.215   C 220.238 531.344 219.211 531.09 218.312 530.703   L 211.129 526.855   L 222.418 505.562   C 222.93 504.535 223.699 503.637 224.598 502.867   L 221.262 501.07   C 221.137 501.457 221.008 501.969 220.75 502.227   C 220.75 502.867 220.367 503.379 219.98 504.277   L 208.82 525.188   C 208.438 525.828 208.18 526.469 208.051 526.727   C 207.664 527.113 207.281 527.367 207.152 527.625   L 219.723 534.422   "
       id="path593" />
  </g>
  <g
     fill="#7f7f7f"
     fill-rule="evenodd"
     stroke-width="0"
     stroke-linejoin="miter"
     stroke-linecap="butt"
     stroke-miterlimit="11.4737"
     id="g594"
     transform="translate(24.40254,-457.8380)">
    <path
       d="  M 244.996 540.836   C 242.816 543.531 240.379 545.07 238.066 545.457   C 235.633 545.969 233.449 545.199 231.398 543.531   L 222.93 536.734   C 223.574 536.605 224.215 536.477 224.727 535.965   C 225.113 535.707 225.367 535.195 225.883 534.68   L 241.148 515.824   C 241.66 515.184 242.047 514.668 242.301 514.285   C 242.688 513.641 242.688 512.871 242.816 512.23   C 245.125 514.285 246.535 517.234 247.688 520.699   C 248.844 524.16 249.102 527.754 248.715 531.09   C 248.332 534.938 247.176 538.273 244.996 540.836   Z   M 244.355 540.324   C 246.406 537.887 247.688 534.938 247.945 531.215   C 248.457 527.883 248.203 524.676 247.176 521.211   C 246.406 518.004 244.996 515.438 243.199 513.516   C 243.199 514.027 242.941 514.41 242.559 514.797   C 242.43 515.309 242.047 515.824 241.531 516.336   L 226.523 534.938   C 226.012 535.578 225.625 536.09 225.242 536.219   C 224.855 536.605 224.727 536.859 224.086 536.988   L 231.652 543.148   C 233.707 544.688 235.758 545.199 237.941 544.812   C 240.25 544.301 242.43 542.891 244.355 540.324   Z   M 242.301 538.914   C 240.762 540.836 239.094 541.734 237.426 542.121   C 235.758 542.25 234.348 541.734 232.938 540.582   L 228.445 536.859   L 242.816 519.16   C 244.355 521.723 245.379 524.93 245.379 528.906   C 245.508 532.883 244.355 536.348 242.301 538.914   Z   M 241.66 538.527   C 243.586 536.09 244.609 532.883 244.738 529.293   C 244.867 525.574 243.969 522.75 242.559 520.312   L 229.219 536.734   L 233.32 540.066   C 234.605 541.094 236.016 541.609 237.426 541.352   C 238.84 541.094 240.25 540.195 241.66 538.527   Z   "
       id="path595" />
  </g>
  <g
     fill="#7f7f7f"
     fill-rule="evenodd"
     stroke-width="0"
     stroke-linejoin="miter"
     stroke-linecap="butt"
     stroke-miterlimit="11.4737"
     id="g596"
     transform="translate(24.40254,-457.8380)">
    <path
       d="  M 250.641 559.566   C 250.254 559.953 249.613 560.207 249.102 560.207   C 248.457 560.078 248.203 559.695 247.688 559.309   C 247.434 558.926 247.047 558.539 247.047 557.898   C 247.047 557.258 247.434 556.746 247.816 556.359   C 248.203 555.977 248.715 555.719 249.355 555.848   C 250 555.848 250.512 556.23 250.77 556.617   C 251.281 557 251.539 557.516 251.41 558.156   C 251.281 558.668 251.023 559.184 250.641 559.566   Z   M 250.254 559.184   C 250.512 558.926 250.641 558.539 250.77 558.027   C 250.77 557.641 250.641 557.258 250.383 557   C 250.125 556.617 249.742 556.488 249.355 556.488   C 248.973 556.488 248.586 556.617 248.332 556.871   C 247.945 557.129 247.816 557.516 247.816 557.898   C 247.688 558.285 247.816 558.539 248.074 558.926   C 248.332 559.184 248.715 559.438 249.102 559.438   C 249.484 559.566 249.871 559.438 250.254 559.184   Z   "
       id="path597" />
  </g>
  <g
     fill="#7f7f7f"
     fill-rule="evenodd"
     stroke-width="0"
     stroke-linejoin="miter"
     stroke-linecap="butt"
     stroke-miterlimit="11.4737"
     id="g598"
     transform="translate(24.40254,-457.8380)">
    <path
       d="  M 282.965 584.324   C 278.734 586.762 274.758 587.789 271.164 587.148   C 267.574 586.504 264.75 584.324 262.828 580.859   C 260.902 577.527 260.391 574.191 261.672 570.984   C 262.828 567.648 265.648 564.699 269.625 562.391   C 274.113 559.824 278.09 558.797 281.684 559.309   C 285.148 559.953 287.969 562.004 290.023 565.598   C 292.074 568.93 292.332 572.395 291.176 575.73   C 289.895 579.066 287.199 581.887 282.965 584.324   Z   M 282.582 583.812   C 286.559 581.504 289.254 578.68 290.535 575.473   C 291.816 572.523 291.305 569.188 289.379 565.98   C 287.457 562.516 284.891 560.465 281.555 559.953   C 278.09 559.566 274.113 560.465 269.883 562.902   C 265.906 565.211 263.598 567.906 262.312 571.113   C 261.031 574.32 261.414 577.398 263.34 580.605   C 265.262 583.941 267.699 585.863 271.293 586.504   C 274.883 586.891 278.477 586.121 282.582 583.812   Z   M 281.684 581.246   C 278.477 583.043 275.527 583.941 272.574 583.555   C 269.625 583.426 267.188 582.016 265.648 579.32   C 264.238 576.758 264.109 574.191 265.262 571.496   C 266.547 568.93 268.598 566.879 271.422 565.211   C 274.758 563.414 277.707 562.516 280.527 562.645   C 283.48 562.902 285.789 564.184 287.328 566.879   C 288.867 569.445 288.996 572.012 287.84 574.832   C 286.816 577.398 284.633 579.578 281.684 581.246   Z   M 281.297 580.734   C 284.121 579.066 286.047 577.012 287.199 574.574   C 288.355 572.137 288.098 569.699 286.688 567.262   C 285.273 564.824 283.223 563.414 280.273 563.414   C 277.707 563.16 274.758 564.055 271.676 565.723   C 268.984 567.391 267.059 569.316 266.035 571.625   C 264.75 574.191 264.75 576.629 266.16 579.066   C 267.574 581.504 269.754 582.914 272.832 583.043   C 275.398 583.172 278.219 582.527 281.297 580.734   Z   "
       id="path599" />
  </g>
  <g
     fill="#7f7f7f"
     fill-rule="evenodd"
     stroke-width="0"
     stroke-linejoin="miter"
     stroke-linecap="butt"
     stroke-miterlimit="11.4737"
     id="g600"
     transform="translate(24.40254,-457.8380)">
    <path
       d="  M 299.77 603.309   C 300.027 602.668 300.027 602.027 300.027 601.516   C 300.027 601 300.027 600.359 299.645 599.59   L 297.207 592.023   L 295.664 592.535   L 298.746 602.027   L 294.895 603.184   L 291.816 593.688   L 274.629 599.332   C 273.988 599.461 273.473 599.848 272.961 600.102   C 272.574 600.359 272.062 600.871 271.676 601.258   L 269.754 595.613   C 270.266 596 271.035 596 271.676 595.871   C 272.32 595.871 272.703 595.742 273.473 595.484   L 296.309 588.043   C 297.078 587.789 297.59 587.66 297.848 587.402   C 298.617 587.02 299.129 586.504 299.516 585.992   L 304.645 601.77   L 299.77 603.309   M 300.539 602.539   L 303.875 601.516   L 299.258 587.402   C 299.129 587.531 298.617 587.918 298.23 587.918   C 297.719 588.301 297.207 588.43 296.309 588.688   L 273.73 596.125   C 273.09 596.254 272.574 596.512 272.062 596.512   C 271.676 596.641 271.164 596.641 270.652 596.512   L 271.805 600.359   C 272.32 599.977 272.703 599.461 273.09 599.332   C 273.602 598.949 273.988 598.82 274.758 598.562   L 292.332 592.918   L 295.41 602.414   L 297.977 601.516   L 294.895 592.023   L 297.719 591.125   L 300.285 599.207   C 300.539 599.977 300.668 600.488 300.668 600.871   C 300.797 601.516 300.668 601.898 300.539 602.539   Z   "
       id="path601" />
  </g>
  <g
     fill="#7f7f7f"
     fill-rule="evenodd"
     stroke-width="0"
     stroke-linejoin="miter"
     stroke-linecap="butt"
     stroke-miterlimit="11.4737"
     id="g602"
     transform="translate(24.40254,-457.8380)">
    <path
       d="  M 278.988 626.527   C 278.477 626.527 277.836 626.402 277.449 626.016   C 277.066 625.629 276.938 625.117 276.809 624.477   C 276.809 623.965 276.68 623.449 277.066 622.938   C 277.449 622.551 277.965 622.168 278.477 622.168   C 279.117 622.039 279.758 622.168 280.145 622.551   C 280.656 622.938 280.914 623.449 280.914 623.965   C 281.043 624.605 281.043 625.246 280.527 625.629   C 280.145 626.016 279.633 626.402 278.988 626.527   Z   M 278.988 625.887   C 279.375 625.758 279.758 625.629 280.145 625.246   C 280.273 624.859 280.402 624.477 280.273 624.09   C 280.273 623.707 280.145 623.32 279.758 623.066   C 279.375 622.938 278.988 622.809 278.605 622.938   C 278.219 622.938 277.836 623.066 277.578 623.449   C 277.449 623.707 277.32 624.09 277.32 624.477   C 277.449 624.859 277.578 625.246 277.836 625.504   C 278.219 625.758 278.605 625.887 278.988 625.887   Z   "
       id="path603" />
  </g>
  <g
     fill="#7f7f7f"
     fill-rule="evenodd"
     stroke-width="0"
     stroke-linejoin="miter"
     stroke-linecap="butt"
     stroke-miterlimit="11.4737"
     id="g604"
     transform="translate(24.40254,-457.8380)">
    <path
       d="  M 285.531 657.828   C 282.582 657.574 280.402 656.289 278.859 654.238   C 277.32 652.184 277.066 649.621 277.32 646.926   C 277.32 645.641 277.578 644.488 277.707 643.59   C 277.965 642.691 278.348 641.539 278.859 640.512   C 279.375 639.742 279.887 638.844 280.914 637.434   L 285.148 641.152   C 284.121 641.793 283.094 642.562 282.453 643.719   C 281.684 644.746 281.426 646.027 281.297 647.309   C 281.172 648.848 281.426 650.133 282.195 651.16   C 282.965 652.312 284.379 652.953 286.172 653.082   C 287.328 653.211 288.355 652.953 289.379 652.699   C 290.277 652.441 291.176 651.801 292.203 651.285   C 292.715 650.645 293.613 650.004 294.512 649.105   C 295.539 648.207 296.562 647.184 297.461 646.285   C 298.746 645.387 299.77 644.617 300.539 644.23   C 301.695 643.719 302.852 643.332 304.004 643.461   C 305.93 643.719 307.34 644.488 308.238 645.641   C 309.137 646.797 309.391 648.207 309.262 649.875   C 309.137 651.16 308.879 652.184 308.492 653.082   C 308.238 653.98 307.598 654.879 306.828 655.906   L 303.621 652.953   C 304.262 652.184 304.516 651.672 304.645 651.543   C 305.031 651.031 305.16 650.516 305.16 650.133   C 305.285 648.723 304.902 647.953 303.746 647.824   C 302.977 647.824 301.953 648.336 300.539 649.492   C 299.258 650.773 297.977 651.93 296.691 653.211   C 295.539 654.109 294.383 655.008 293.484 655.52   C 292.203 656.289 291.047 656.93 289.895 657.316   C 288.355 657.699 286.941 657.957 285.531 657.828   Z   M 285.66 657.059   C 287.07 657.188 288.48 657.059 289.895 656.676   C 291.047 656.289 292.203 655.777 293.355 655.008   C 294.383 654.238 295.41 653.598 296.562 652.699   C 297.848 651.414 299.387 650.133 300.668 648.848   C 302.078 647.695 303.105 647.184 303.875 647.184   C 304.645 647.309 305.16 647.566 305.543 648.078   C 305.801 648.465 305.93 649.234 305.801 650.133   C 305.801 650.516 305.801 650.902 305.543 651.414   C 305.414 651.801 305.031 652.184 304.516 652.828   L 306.828 654.879   C 307.469 654.109 307.723 653.34 308.109 652.699   C 308.238 651.93 308.492 651.031 308.621 649.875   C 308.75 648.336 308.367 647.184 307.723 646.156   C 306.828 645 305.543 644.359 303.746 644.23   C 302.723 644.102 301.566 644.359 300.414 644.871   C 299.645 645.129 298.746 646.027 297.59 646.926   C 296.562 647.824 295.664 648.723 294.641 649.621   C 293.742 650.516 292.844 651.16 292.074 651.801   C 291.176 652.441 290.148 653.082 289.254 653.34   C 288.227 653.723 287.199 653.852 286.047 653.723   C 284.121 653.469 282.582 652.828 281.684 651.672   C 280.785 650.516 280.402 649.105 280.656 647.309   C 280.785 646.027 281.043 644.871 281.684 643.59   C 282.195 642.562 283.094 641.664 283.863 641.023   L 281.043 638.586   C 280.402 639.484 279.758 640.512 279.504 641.152   C 278.859 642.051 278.348 643.078 278.219 643.977   C 277.836 644.871 277.578 646.027 277.578 647.184   C 277.32 649.746 277.836 651.93 279.375 653.723   C 280.914 655.648 282.965 656.805 285.66 657.059   Z   "
       id="path605" />
  </g>
  <g
     fill="#7f7f7f"
     fill-rule="evenodd"
     stroke-width="0"
     stroke-linejoin="miter"
     stroke-linecap="butt"
     stroke-miterlimit="11.4737"
     id="g606"
     transform="translate(24.40254,-457.8380)">
    <path
       d="  M 271.934 677.586   L 276.039 659.754   C 276.297 660.395 276.938 660.906 277.578 661.164   C 277.965 661.422 278.477 661.422 279.246 661.676   L 302.594 667.066   C 303.363 667.195 304.004 667.32 304.516 667.32   C 305.16 667.32 305.801 667.066 306.441 666.809   L 302.723 683.102   L 297.848 682.074   C 298.359 681.434 298.746 680.918 299 680.535   C 299.258 680.023 299.516 679.379 299.645 678.609   L 301.438 670.785   L 299.77 670.402   L 297.461 680.535   L 293.613 679.766   L 295.922 669.633   L 278.734 665.527   L 276.551 675.02   C 276.426 675.918 276.297 676.816 276.297 677.457   C 276.426 677.586 276.551 678.227 276.809 678.738   L 271.934 677.586   M 272.574 677.328   L 276.168 678.098   C 275.91 677.457 275.781 677.07 275.781 676.559   C 275.652 676.043 275.781 675.402 276.039 674.633   L 278.219 664.758   L 296.691 669.117   L 294.383 679.25   L 297.078 679.766   L 299.387 669.633   L 302.207 670.402   L 300.414 678.738   C 300.156 679.379 299.898 679.895 299.645 680.277   C 299.516 680.793 299.129 681.047 298.746 681.562   L 302.207 682.332   L 305.543 667.965   C 305.285 668.09 304.773 668.09 304.391 667.965   C 303.875 667.965 303.234 667.836 302.336 667.707   L 279.246 662.32   C 278.605 662.191 277.965 662.062 277.449 661.805   C 277.066 661.676 276.68 661.422 276.297 661.164   L 272.574 677.328   "
       id="path607" />
  </g>
  <g
     fill="#7f7f7f"
     fill-rule="evenodd"
     stroke-width="0"
     stroke-linejoin="miter"
     stroke-linecap="butt"
     stroke-miterlimit="11.4737"
     id="g608"
     transform="translate(24.40254,-457.8380)">
    <path
       d="  M 263.34 697.34   L 265.777 691.824   C 266.035 692.465 266.547 693.105 266.93 693.363   C 267.316 693.492 267.957 693.875 268.598 694.262   L 273.73 696.57   L 277.32 688.359   C 277.066 688.23 276.68 687.977 275.91 687.59   C 275.141 687.332 274.5 687.078 274.242 686.82   C 273.09 686.309 271.805 685.922 271.035 685.664   C 270.137 685.41 269.242 685.281 268.727 685.41   L 271.164 679.895   C 271.293 680.535 271.934 680.918 272.32 681.305   C 272.961 681.688 273.344 682.074 273.859 682.332   L 278.219 684.254   C 281.426 685.664 284.504 687.977 287.199 690.797   C 289.766 693.621 291.562 696.57 292.586 699.777   C 293.613 703.496 293.484 706.574 292.457 708.883   C 292.332 709.141 292.203 709.27 292.203 709.398   C 292.074 709.527 291.945 709.781 291.688 710.039   C 291.434 709.527 291.047 709.012 290.664 708.629   C 290.148 708.242 289.508 707.988 288.996 707.73   L 266.93 697.98   C 266.418 697.723 265.777 697.469 265.391 697.469   C 264.621 697.211 263.98 697.082 263.34 697.34   Z   M 264.367 696.57   C 264.879 696.57 265.391 696.699 265.777 696.699   C 266.289 696.953 266.805 697.211 267.316 697.34   L 289.125 707.09   C 289.637 707.344 290.277 707.602 290.535 707.73   C 291.047 707.988 291.305 708.371 291.816 708.758   L 292.074 708.242   C 292.973 706.062 292.973 703.242 291.945 699.906   C 290.918 696.828 289.254 693.875 286.559 691.184   C 284.121 688.359 281.172 686.309 277.965 684.895   L 273.73 682.973   C 272.832 682.586 271.934 681.945 271.293 681.047   L 269.625 684.895   C 270.266 684.77 270.906 685.023 271.676 685.152   C 272.449 685.281 273.344 685.793 274.5 686.18   C 275.012 686.438 275.91 686.82 276.938 687.332   C 277.836 687.719 278.348 688.102 278.348 688.102   L 274.242 697.469   L 268.469 694.902   C 267.828 694.645 267.445 694.391 266.93 694.133   C 266.418 693.875 266.16 693.492 265.906 693.234   L 264.367 696.57   M 276.551 698.492   L 280.527 689.641   C 281.812 690.414 283.094 691.695 284.504 692.977   C 286.047 694.773 287.328 696.57 288.355 698.492   C 289.379 700.676 290.148 702.598 290.023 704.523   L 276.551 698.492   M 277.578 698.238   L 289.766 703.625   C 289.508 702.086 288.996 700.289 287.84 698.367   C 286.941 696.828 285.66 695.285 284.379 693.746   C 283.223 692.465 282.066 691.309 280.914 690.668   L 277.578 698.238   "
       id="path609" />
  </g>
  <g
     fill="#7f7f7f"
     fill-rule="evenodd"
     stroke-width="0"
     stroke-linejoin="miter"
     stroke-linecap="butt"
     stroke-miterlimit="11.4737"
     id="g610"
     transform="translate(24.40254,-457.8380)">
    <path
       d="  M 249.871 717.223   C 254.23 713.633 259.234 711.32 264.621 710.551   C 270.523 709.781 275.398 710.938 279.375 713.887   C 281.812 715.555 283.223 717.863 283.734 720.301   C 283.863 722.609 283.223 725.047 281.555 727.355   L 277.195 733.258   L 272.574 729.922   C 274.883 729.023 276.68 727.613 277.707 726.074   C 278.859 724.535 279.375 723.125 279.375 721.457   C 279.117 719.66 278.09 718.25 276.551 717.094   C 274.113 715.426 271.164 714.656 266.93 714.656   C 263.34 714.785 260.133 715.555 257.695 716.965   L 268.469 724.793   C 269.113 725.176 269.625 725.562 270.012 725.688   C 270.652 726.074 271.293 726.203 272.062 726.203   L 268.469 731.078   C 268.215 730.309 267.957 729.664 267.445 729.152   C 267.188 728.895 266.805 728.383 266.16 728   L 253.848 719.02   C 253.078 718.504 252.051 718.121 250.895 717.734   C 250.77 717.48 250.125 717.352 249.871 717.223   Z   M 251.023 716.965   C 251.41 717.223 252.051 717.352 252.562 717.734   C 253.207 717.992 253.848 718.25 254.23 718.504   L 266.418 727.355   C 267.188 727.871 267.699 728.254 267.828 728.641   C 268.215 728.895 268.344 729.152 268.727 729.664   L 270.781 726.844   C 270.523 726.844 270.012 726.586 269.754 726.332   C 269.242 726.074 268.727 725.688 267.957 725.176   L 256.539 716.84   C 258.078 715.812 260.262 715.043 262.953 714.527   C 265.52 714.145 268.086 713.887 270.523 714.273   C 273.09 714.656 275.27 715.426 276.938 716.582   C 278.734 717.863 279.633 719.531 279.887 721.328   C 280.145 722.996 279.633 724.664 278.605 726.203   C 277.965 727.102 277.32 727.613 276.426 728.383   C 275.527 728.895 274.629 729.539 273.602 729.922   L 277.066 732.359   L 281.043 726.973   C 282.582 724.793 283.223 722.609 282.711 720.301   C 282.582 718.121 281.172 715.941 278.988 714.402   C 276.426 712.477 273.473 711.449 270.012 711.195   C 266.676 710.938 263.469 711.066 259.875 712.219   C 256.539 713.375 253.59 715.043 251.023 716.965   Z   "
       id="path611" />
  </g>
  <g
     fill="#7f7f7f"
     fill-rule="evenodd"
     stroke-width="0"
     stroke-linejoin="miter"
     stroke-linecap="butt"
     stroke-miterlimit="11.4737"
     id="g612"
     transform="translate(24.40254,-457.8380)">
    <path
       d="  M 234.348 733.258   L 238.711 729.023   C 238.711 729.664 238.965 730.438 239.223 731.078   C 239.48 731.332 239.863 731.848 240.379 732.488   L 244.355 736.465   L 250.895 730.18   C 250.512 729.922 250.254 729.41 249.613 728.895   C 249.102 728.254 248.586 727.742 248.332 727.484   C 247.434 726.586 246.664 725.816 245.895 725.305   C 244.996 724.793 244.355 724.277 243.84 724.148   L 248.074 719.918   C 248.074 720.559 248.457 721.328 248.715 721.969   C 249.102 722.355 249.484 722.996 249.871 723.379   L 253.207 726.715   C 255.645 729.281 257.566 732.488 258.977 736.078   C 260.262 739.801 260.902 743.262 260.516 746.598   C 260.133 750.32 258.977 753.012 257.055 754.809   C 256.926 755.066 256.797 755.066 256.668 755.195   C 256.539 755.32 256.285 755.578 255.898 755.707   C 255.898 755.066 255.898 754.551 255.387 753.91   C 255.129 753.398 254.746 752.883 254.359 752.5   L 237.555 735.184   C 237.043 734.668 236.656 734.156 236.273 734.027   C 235.758 733.645 234.988 733.258 234.348 733.258   Z   M 235.633 732.871   C 236.016 733 236.656 733.516 237.043 733.645   C 237.297 734.027 237.812 734.414 238.195 734.797   L 254.746 751.988   C 255.129 752.5 255.645 752.883 255.77 753.141   C 256.027 753.652 256.156 753.91 256.539 754.426   L 256.926 754.039   C 258.723 752.371 259.621 749.676 260.004 746.344   C 260.133 743.137 259.621 739.801 258.207 736.336   C 257.055 732.871 255.129 729.664 252.691 727.102   L 249.484 723.766   C 248.715 723.125 248.332 722.227 247.816 721.07   L 244.867 723.895   C 245.508 724.148 246.148 724.535 246.664 725.176   C 247.305 725.562 248.074 726.332 248.844 727.102   C 249.355 727.613 249.871 728.254 250.77 729.023   C 251.41 729.793 251.793 730.438 251.793 730.438   L 244.48 737.492   L 240.121 732.871   C 239.609 732.488 239.223 732.102 238.965 731.719   C 238.582 731.332 238.453 730.691 238.324 730.309   L 235.633 732.871   M 246.277 739.285   L 253.207 732.488   C 254.102 733.898 254.871 735.438 255.645 737.234   C 256.414 739.414 256.926 741.598 257.184 743.648   C 257.309 746.086 257.184 748.137 256.414 749.934   L 246.277 739.285   M 247.176 739.414   L 256.414 749.035   C 256.926 747.496 257.055 745.574 256.668 743.52   C 256.539 741.723 256.027 739.672 255.258 737.746   C 254.617 736.078 253.977 734.668 253.207 733.645   L 247.176 739.414   "
       id="path613" />
  </g>
  <g
     fill="#7f7f7f"
     fill-rule="evenodd"
     stroke-width="0"
     stroke-linejoin="miter"
     stroke-linecap="butt"
     stroke-miterlimit="11.4737"
     id="g614"
     transform="translate(24.40254,-457.8380)">
    <path
       d="  M 234.734 772.512   C 234.09 771.613 233.965 770.586 234.348 769.176   C 234.605 768.023 235.246 766.867 236.402 766.227   L 239.094 764.301   L 225.367 744.547   C 224.984 744.035 224.598 743.52 224.215 743.262   C 223.699 742.75 223.188 742.367 222.547 742.109   L 227.422 738.645   C 227.293 739.414 227.551 740.055 227.805 740.699   C 227.934 741.082 228.191 741.598 228.703 742.109   L 242.43 761.863   L 245.508 759.812   C 246.277 759.172 247.305 758.145 247.945 756.988   L 250.512 760.711   L 237.426 769.816   C 236.914 770.203 236.402 770.715 235.887 771.355   C 235.887 771.355 235.375 771.742 234.734 772.512   Z   M 234.988 771.613   C 235.375 771.102 235.887 770.586 236.016 770.203   C 236.527 769.816 236.914 769.434 237.297 769.176   L 249.742 760.582   L 247.816 757.887   C 247.305 758.914 246.664 759.941 245.637 760.582   L 242.172 763.02   L 228.191 742.879   C 227.676 742.109 227.422 741.469 227.164 741.211   C 226.906 740.828 226.781 740.441 226.781 739.93   L 223.828 742.109   C 224.086 742.238 224.598 742.492 224.984 743.008   C 225.367 743.52 225.754 743.777 226.137 744.289   L 240.121 764.43   L 236.914 766.609   C 236.016 767.379 235.246 768.023 234.988 768.918   C 234.734 770.074 234.605 770.844 234.988 771.613   Z   "
       id="path615" />
  </g>
  <g
     fill="#7f7f7f"
     fill-rule="evenodd"
     stroke-width="0"
     stroke-linejoin="miter"
     stroke-linecap="butt"
     stroke-miterlimit="11.4737"
     id="g616"
     transform="translate(24.40254,-457.8380)">
    <path
       d="  M 197.789 754.938   L 214.594 747.496   C 214.207 748.137 214.207 748.906 214.336 749.422   C 214.465 750.062 214.594 750.574 214.977 751.219   L 224.727 773.152   C 224.984 773.793 225.242 774.438 225.625 774.691   C 226.012 775.332 226.652 775.848 227.293 776.102   L 212.027 782.773   L 209.977 778.285   C 210.746 778.414 211.387 778.285 211.77 778.285   C 212.414 778.285 212.926 778.156 213.824 777.769   L 221.008 774.438   L 220.367 772.895   L 210.871 777.129   L 209.207 773.539   L 218.699 769.305   L 211.516 753.141   L 202.664 757.117   C 201.766 757.504 201.25 758.016 200.609 758.402   C 200.48 758.527 200.227 758.914 199.711 759.555   L 197.789 754.938   M 198.688 755.32   L 200.098 758.656   C 200.355 758.016 200.609 757.633 200.996 757.246   C 201.379 756.988 201.895 756.734 202.664 756.477   L 211.898 752.242   L 219.598 769.562   L 210.102 773.793   L 211.258 776.359   L 220.75 772.125   L 221.906 774.82   L 214.078 778.285   C 213.438 778.668 212.797 778.797 212.414 778.797   C 211.898 778.926 211.387 778.797 210.871 778.668   L 212.414 782.004   L 225.883 776.102   C 225.625 775.848 225.242 775.332 225.113 775.078   C 224.727 774.691 224.469 774.051 224.215 773.281   L 214.465 751.602   C 214.207 750.961 213.953 750.449 213.953 749.805   C 213.695 749.422 213.695 749.035 213.824 748.523   L 198.688 755.32   "
       id="path617" />
  </g>
  <g
     fill="#7f7f7f"
     fill-rule="evenodd"
     stroke-width="0"
     stroke-linejoin="miter"
     stroke-linecap="butt"
     stroke-miterlimit="11.4737"
     id="g618"
     transform="translate(24.40254,-457.8380)">
    <path
       d="  M 183.164 761.352   C 183.035 760.84 183.035 760.066 183.293 759.684   C 183.676 759.172 184.191 758.914 184.832 758.785   C 185.344 758.656 185.859 758.656 186.371 758.914   C 186.883 759.297 187.27 759.812 187.398 760.324   C 187.527 760.965 187.398 761.609 187.141 761.992   C 186.883 762.633 186.242 762.891 185.73 763.02   C 185.09 763.148 184.574 763.148 184.062 762.762   C 183.551 762.379 183.293 761.992 183.164 761.352   Z   M 183.676 761.223   C 183.805 761.609 183.934 761.863 184.32 762.25   C 184.832 762.379 185.219 762.504 185.602 762.379   C 185.988 762.25 186.371 762.121 186.5 761.734   C 186.629 761.352 186.758 760.84 186.629 760.453   C 186.5 760.066 186.371 759.812 185.988 759.555   C 185.73 759.426 185.344 759.297 184.961 759.426   C 184.574 759.555 184.191 759.684 183.934 760.066   C 183.676 760.324 183.551 760.84 183.676 761.223   Z   "
       id="path619" />
  </g>
  <g
     fill="#7f7f7f"
     fill-rule="evenodd"
     stroke-width="0"
     stroke-linejoin="miter"
     stroke-linecap="butt"
     stroke-miterlimit="11.4737"
     id="g620"
     transform="translate(24.40254,-457.8380)"
     style="stroke:#180000;stroke-opacity:0;fill:#21cf28;fill-opacity:1;">
    <path
       d="  M 180.68 690.934   C 179.887 691.363 177.867 691.363 176.43 691.141   C 171.68 690.5 158.859 697.91 165.918 703.742   C 170.598 707.562 172.617 709 173.617 713.031   C 174.488 716.562 182.77 718.5 185.137 716.922   C 188.02 714.98 190.469 710.582 190.828 708.57   C 191.258 706.551 192.848 704.75 192.848 708.211   C 192.848 711.66 193.859 718.141 196.52 720.742   L 199.539 717.934   C 198.098 716.492 195.078 709.434 195.078 707.992   C 195.078 706.551 196.879 703.312 198.898 705.98   C 200.977 708.57 201.418 710.582 203.219 713.82   C 205.02 717.141 214.02 720.023 215.379 716.273   C 216.75 712.242 220.277 709.363 224.887 706.773   C 230.578 703.531 223.09 690.57 212.938 690.141   C 205.59 689.852 213.438 687.262 212.5 687.543   C 214.52 686.902 219.488 684.383 223.227 682.652   C 227.699 680.633 228.34 673.363 226.109 671.562   C 223.879 669.691 219.918 667.242 218.406 664.652   C 208.469 647.801 199.328 666.453 199.18 673.723   C 198.898 681.062 195.867 676.383 196.297 673.723   C 196.738 671.133 195.297 665.441 193.277 661.621   C 191.258 657.742 180.68 655.5 178.297 660.184   C 175.859 664.863 172.617 668.031 169.156 670.703   C 165.699 673.363 164.117 680.633 169.949 684.094   C 175.859 687.543 178.809 687.832 180.898 688.551   C 182.117 688.91 180.68 690.934 180.68 690.934   Z   "
       id="path621"
       style="stroke:#180000;stroke-opacity:0;fill:#21cf28;fill-opacity:1;" />
  </g>
  <g
     fill="#7f7f7f"
     fill-rule="evenodd"
     stroke-width="0"
     stroke-linejoin="miter"
     stroke-linecap="butt"
     stroke-miterlimit="11.4737"
     id="g622"
     transform="translate(24.40254,-457.8380)"
     style="fill:#de762c;fill-opacity:1;">
    <path
       d="  M 93.8477 593.152   C 93.6289 604.602 97.8086 616.121 107.668 623.184   C 107.738 623.184 108.098 622.82 108.098 622.742   C 106.809 620.152 106.379 617.422 106.02 614.613   C 105.727 612.383 106.297 610 108.457 609.422   C 110.258 608.922 112.566 608.922 113.789 611.152   C 115.09 608.781 114.219 605.973 115.297 603.453   C 116.168 601.582 116.598 599.562 118.328 598.48   C 118.469 598.41 119.617 598.121 119.617 598.844   C 119.77 601.582 119.617 604.312 119.117 607.191   C 118.688 609.352 120.488 612.094 118.109 613.383   C 117.68 613.672 117.457 614.184 117.027 614.32   C 117.898 616.121 119.047 617.852 118.688 620.012   C 118.398 621.742 118.688 623.461 118.539 625.191   C 118.398 626.992 117.68 628.863 118.977 630.594   C 121.277 629.73 123.867 631.531 126.098 629.871   C 125.527 627.57 126.027 625.191 125.957 622.961   C 125.887 620.73 124.59 618.141 126.609 616.051   C 127.109 616.703 127.258 615.832 127.258 615.832   C 127.828 614.25 125.887 613.461 125.668 612.094   C 125.379 609.281 125.309 606.543 125.379 603.742   C 125.379 602.012 124.379 599.852 126.098 598.344   C 125.598 599.273 126.898 598.703 127.109 599.273   C 128.617 602.871 130.348 606.184 131.859 609.711   C 132.867 612.094 132.438 614.902 133.738 617.273   C 135.027 615.113 134.457 612.742 134.598 610.363   C 134.957 606.184 133.52 602.301 132.078 598.344   C 132.078 598.191 132.438 597.902 132.508 597.902   C 134.816 599.203 136.898 600.422 139.207 601.941   C 139.277 602.012 139.637 601.652 139.566 601.582   C 138.988 600.352 139.207 598.773 137.906 597.832   C 138.34 597.402 137.699 596.613 138.418 596.391   C 140.359 595.961 141.938 595.102 143.598 594.16   C 142.02 592.941 140 592.652 138.418 591.422   C 139.277 590.562 138.988 589.262 139.566 588.184   C 139.566 588.113 139.566 587.25 139.207 587.391   C 138.699 587.543 138.418 588.184 137.906 588.473   C 135.816 589.551 133.52 589.98 131.289 590.703   C 133.809 586.891 135.027 582.422 135.18 577.891   C 135.25 575.371 134.887 572.852 133.738 570.543   C 133.09 574.363 133.09 578.32 131.137 581.781   C 129.848 584.012 129.129 587.031 126.316 587.543   C 125.379 587.684 125.668 586.172 125.816 585.594   C 126.316 582.641 127.898 580.051 127.977 577.172   C 127.977 576.23 128.188 575.371 128.188 574.434   C 128.547 568.891 126.539 563.273 123.438 558.742   C 123.008 559.383 122.359 560.031 122.066 560.75   C 120.918 563.922 118.898 566.73 118.617 570.262   C 118.258 575.871 118.617 581.422 120.418 586.82   C 120.918 588.184 120.418 589.41 119.188 589.844   C 117.68 590.422 116.668 589.191 115.809 587.973   C 113.859 585.094 114.656 581.703 113.066 578.902   C 111.988 580.621 109.258 580.844 107.957 579.113   C 107.02 577.82 106.949 576.23 107.02 574.723   C 107.168 571.773 107.309 568.891 108.539 566.082   C 108.609 566.012 108.25 565.652 108.18 565.652   C 106.379 567.023 104.578 568.102 103.277 570.113   C 102.199 571.773 100.758 572.852 99.8164 574.5   C 98.5977 576.66 97.3789 578.75 96.5781 580.91   C 95.3594 584.082 94.0586 587.32 93.9883 590.703   C 93.9883 591.57 93.918 592.363 93.8477 593.152   Z   "
       id="path623"
       style="fill:#de762c;fill-opacity:1;" />
  </g>
  <g
     fill="#7f7f7f"
     fill-rule="evenodd"
     stroke-width="0"
     stroke-linejoin="miter"
     stroke-linecap="butt"
     stroke-miterlimit="11.4737"
     id="g624"
     transform="translate(24.40254,-457.8380)">
    <path
       d="  M 153.457 534.184   L 153.68 643.703   L 261.316 643.703   C 262.977 590.344 225.387 537.641 153.457 534.184   Z   "
       id="path625" />
  </g>
  <g
     stroke="#7f7f7f"
     fill="none"
     stroke-width="0.22"
     stroke-linejoin="miter"
     stroke-linecap="butt"
     stroke-miterlimit="11.4737"
     id="g626"
     transform="translate(24.40254,-457.8380)">
    <path
       d="  M 153.457 534.184   L 153.68 643.703   L 261.316 643.703   C 262.977 590.344 225.387 537.641 153.457 534.184   Z   "
       id="path627" />
  </g>
  <g
     fill="#7f7f7f"
     fill-rule="evenodd"
     stroke-width="0"
     stroke-linejoin="miter"
     stroke-linecap="butt"
     stroke-miterlimit="11.4737"
     id="g628"
     transform="translate(24.40254,-457.8380)"
     style="stroke:#000000;stroke-opacity:0;fill:#7f7f7f;fill-opacity:1;">
    <path
       d="  M 155.117 745.141   L 155.117 642.621   L 50.7188 642.621   C 52.9492 690.211 86.4297 742.844 155.117 745.141   Z   "
       id="path629"
       style="stroke:#000000;stroke-opacity:0;fill:#7f7f7f;fill-opacity:1;" />
  </g>
  <g
     stroke="#7f7f7f"
     fill="none"
     stroke-width="0.22"
     stroke-linejoin="miter"
     stroke-linecap="butt"
     stroke-miterlimit="11.4737"
     id="g630"
     transform="translate(24.40254,-457.8380)">
    <path
       d="  M 155.117 745.141   L 155.117 642.621   L 50.7188 642.621   C 52.9492 690.211 86.4297 742.844 155.117 745.141   Z   "
       id="path631" />
  </g>
  <g
     stroke="#7f7f7f"
     fill="none"
     stroke-width="2.02"
     stroke-linejoin="miter"
     stroke-linecap="butt"
     stroke-miterlimit="11.4737"
     id="g552"
     transform="translate(24.40254,-457.8380)"
     style="stroke:#1812ff;stroke-opacity:1;">
    <path
       d="  M 156.559 745.582   C 214.879 745.582 262.18 698.273 262.18 639.953   C 262.18 581.633 214.879 534.332 156.559 534.332   C 98.2383 534.332 51.0781 581.633 51.0781 639.953   C 51.0781 698.273 98.2383 745.582 156.559 745.582   Z   "
       id="path553"
       style="stroke:#1812ff;stroke-opacity:1;" />
  </g>
</svg>
