<?xml version="1.0" encoding="UTF-8" standalone="no"?>
<svg
   xmlns:dc="http://purl.org/dc/elements/1.1/"
   xmlns:cc="http://creativecommons.org/ns#"
   xmlns:rdf="http://www.w3.org/1999/02/22-rdf-syntax-ns#"
   xmlns:svg="http://www.w3.org/2000/svg"
   xmlns="http://www.w3.org/2000/svg"
   xmlns:sodipodi="http://sodipodi.sourceforge.net/DTD/sodipodi-0.dtd"
   xmlns:inkscape="http://www.inkscape.org/namespaces/inkscape"
   viewBox="0 0 431.22189 427.58906"
   height="427.58908"
   width="431.22189"
   xml:space="preserve"
   id="svg2"
   version="1.1"
   sodipodi:docname="cover.svg"
   inkscape:version="0.92.4 (5da689c313, 2019-01-14)"><sodipodi:namedview
     pagecolor="#ffffff"
     bordercolor="#666666"
     borderopacity="1"
     objecttolerance="10"
     gridtolerance="10"
     guidetolerance="10"
     inkscape:pageopacity="0"
     inkscape:pageshadow="2"
     inkscape:window-width="1457"
     inkscape:window-height="1120"
     id="namedview48"
     showgrid="false"
     fit-margin-top="10"
     fit-margin-left="10"
     fit-margin-right="10"
     fit-margin-bottom="10"
     inkscape:zoom="1.6817101"
     inkscape:cx="215.61095"
     inkscape:cy="255.09302"
     inkscape:window-x="424"
     inkscape:window-y="133"
     inkscape:window-maximized="0"
     inkscape:current-layer="svg2" /><metadata
     id="metadata8"><rdf:RDF><cc:Work
         rdf:about=""><dc:format>image/svg+xml</dc:format><dc:type
           rdf:resource="http://purl.org/dc/dcmitype/StillImage" /><dc:title></dc:title></cc:Work></rdf:RDF></metadata><defs
     id="defs6" /><path
     id="path14"
     style="fill:#f4f4f4;fill-opacity:1;fill-rule:evenodd;stroke:none;stroke-width:0.13333333"
     d="m 217.5727,356.36412 c 77.76,0 140.82667,-63.08026 140.82667,-140.84013 0,-77.76 -63.06667,-140.826661 -140.82667,-140.826661 -77.76026,0 -140.63986,63.066661 -140.63986,140.826661 0,77.75987 62.8796,140.84013 140.63986,140.84013"
     inkscape:connector-curvature="0" /><path
     id="path16"
     style="fill:none;stroke:#231f20;stroke-width:2.69333339;stroke-linecap:butt;stroke-linejoin:miter;stroke-miterlimit:11.47369957;stroke-dasharray:none;stroke-opacity:1"
     d="m 217.5727,356.36412 c 77.76,0 140.82667,-63.08026 140.82667,-140.84013 0,-77.76 -63.06667,-140.826661 -140.82667,-140.826661 -77.76026,0 -140.63986,63.066661 -140.63986,140.826661 0,77.75987 62.8796,140.84013 140.63986,140.84013 z"
     inkscape:connector-curvature="0" /><g
     id="g974"><path
       inkscape:connector-curvature="0"
       d="m 154.69937,412.45784 c 0.51333,-1.53959 1.36933,-2.56563 3.07867,-3.42083 1.54,-0.68386 3.25066,-1.02605 4.78933,-0.68386 l 4.44667,1.02605 7.184,-31.12921 c 0.17066,-0.8552 0.34266,-1.7104 0.34266,-2.22334 0,-1.02666 0,-2.05266 -0.34266,-2.90786 l 7.69733,1.8812 c -0.684,0.51306 -1.368,1.36826 -1.71067,2.05266 -0.34133,0.6844 -0.34133,1.36827 -0.684,2.39427 l -7.184,31.12967 4.78934,1.19688 c 1.368,0.34218 3.24933,0.34218 5.132,-0.17084 l -1.36934,5.98646 -20.696,-4.78906 c -0.85466,-0.17135 -2.052,-0.17135 -3.07866,-0.34219 -0.17067,0 -0.85467,0 -2.39467,0 z m 1.36933,-0.51303 c 0.85467,-0.17134 1.70934,-0.17134 2.39334,-0.17134 0.68533,0 1.36933,0 2.05333,0.17134 l 19.66933,4.61824 1.02667,-4.27604 c -1.71067,0.51302 -3.07867,0.68386 -4.61867,0.34167 l -5.47333,-1.19688 7.35467,-31.81355 c 0.17066,-1.19733 0.51333,-2.05266 0.684,-2.5656 0.172,-0.51306 0.51333,-1.19746 0.856,-1.5396 l -4.61867,-1.19693 c 0.17067,0.68387 0.34267,1.36827 0.17067,2.05213 -0.17067,0.8552 -0.17067,1.5396 -0.34134,2.3948 l -7.35466,31.81354 -5.132,-1.02656 c -1.368,-0.34167 -2.90667,-0.34167 -4.276,0 -1.196,0.68437 -2.052,1.36822 -2.39334,2.39478"
       style="fill:#000000;fill-opacity:1;fill-rule:evenodd;stroke:none;stroke-width:0.13333333"
       id="path18" /><path
       inkscape:connector-curvature="0"
       d="m 121.17604,397.74852 c 0.8552,-0.34227 1.36827,-1.02613 1.8812,-1.71053 0.5136,-0.51294 1.02667,-1.36814 1.36827,-2.22334 l 12.99946,-29.248 c 0.34173,-0.6844 0.51307,-1.5396 0.68387,-2.05253 0.34226,-1.02613 0.34226,-2.05267 0.17133,-2.90787 l 7.3552,3.25 c -1.02667,0.34227 -1.71067,1.19747 -2.224,1.7104 -0.34267,0.51307 -0.684,1.36827 -1.19733,2.22347 l -9.06507,20.52507 c 0.34213,0.51293 0.51307,1.19733 0.8552,1.53906 0.34213,0.51347 0.8552,1.02654 1.36827,1.19734 0.68386,0.34213 1.8812,0.51306 3.5916,0.51306 1.02653,0.17134 1.5396,0.34214 2.22346,0.68427 0.5136,0.17093 1.02654,0.51307 1.71054,0.68387 0.684,0.34226 0.85466,0.8552 1.19733,1.3688 l 9.57867,-21.38027 c 0.51333,-0.8552 0.684,-1.53947 0.684,-2.22333 0.34133,-0.8552 0.34133,-1.88134 0.17066,-2.90787 l 7.35467,3.25 c -1.02667,0.51307 -1.71067,1.19693 -2.224,1.8812 -0.512,0.51307 -0.68267,1.19747 -1.19733,2.05267 l -12.99867,29.24786 c -0.34133,0.8552 -0.684,1.71047 -0.85467,2.39432 -0.17066,0.85522 0,1.88178 0.17067,2.56563 l -7.3544,-3.24948 c 0.8552,-0.1714 1.36827,-1.0266 1.88133,-1.36873 0.51294,-0.8552 1.026,-1.53907 1.36814,-2.39427 l 1.19746,-2.90787 c -0.34226,-0.51293 -0.34226,-0.68386 -0.6844,-1.026 -0.51306,-0.34213 -0.8552,-0.51306 -1.36826,-0.8552 -0.8552,-0.34226 -1.7104,-0.51306 -2.39427,-0.6844 -2.22387,-0.34213 -3.59213,-0.51306 -4.276,-0.8552 -1.02653,-0.51306 -1.88173,-1.19733 -2.5656,-1.8812 l -1.36826,3.07854 c -0.34214,0.85533 -0.6844,1.71053 -0.8552,2.22346 -0.17134,1.02654 0,2.05267 0.1708,2.73654 z m 17.95933,-36.60267 c 0.17093,0.51307 0.17093,1.19747 -0.17133,1.8812 -0.1708,0.6844 -0.51294,1.3688 -0.68387,2.05267 l -12.99946,28.90573 c -0.3416,0.8552 -0.68387,1.88174 -1.1968,2.3948 -0.17147,0.51307 -0.51307,0.8552 -1.19747,1.36827 l 4.44693,1.8812 c 0,-0.34173 0.17134,-1.19693 0.34214,-1.53907 0.1708,-0.6844 0.51306,-1.7104 1.026,-2.73693 l 1.88186,-4.27613 c 0.51294,1.5396 1.7104,2.56573 2.7364,3.0792 0.8552,0.34173 1.88133,0.51306 2.73653,0.51306 2.22387,0.34214 3.59214,0.68387 4.1052,0.8552 0.68427,0.34214 1.36814,0.68387 1.7104,1.026 0.34214,0.34227 0.6848,0.6844 1.1968,1.5396 l -1.53906,3.24947 c -0.34214,0.8552 -0.68387,1.88173 -1.19734,2.22347 -0.1708,0.51346 -0.51306,1.02653 -1.19693,1.36873 l 4.44667,1.88125 c 0,-0.34218 0.17066,-1.02604 0.34266,-1.36822 0.17067,-0.85523 0.51334,-1.71043 0.85467,-2.73696 l 12.99867,-28.90574 c 0.34266,-0.8552 0.684,-1.7104 0.856,-2.22346 0.51333,-0.34214 0.85466,-0.8552 1.19733,-1.36827 l -4.448,-1.8812 c 0.172,0.68387 0.172,1.19693 -0.17067,1.8812 -0.17066,0.8552 -0.51333,1.5396 -0.684,2.22347 l -9.92,22.40626 c -0.684,-0.68386 -1.19733,-1.36826 -1.71066,-1.8812 -0.684,-0.34226 -1.19694,-0.6844 -1.88134,-1.02666 -0.8552,-0.3416 -2.05266,-0.3416 -3.76306,-0.68387 -1.026,0 -1.7104,-0.34213 -2.39427,-0.51293 -0.51307,-0.17134 -1.19733,-0.5136 -1.5396,-1.19747 -0.51307,-0.51293 -0.8552,-1.36813 -1.19733,-2.05253 l 9.4072,-20.86667 c 0.34226,-0.8552 0.6844,-1.7104 0.85506,-2.22347 0.51334,-0.5136 0.856,-0.8552 1.19734,-1.3688 l -4.44667,-1.8812"
       style="fill:#000000;fill-opacity:1;fill-rule:evenodd;stroke:none;stroke-width:0.13333333"
       id="path20" /><path
       inkscape:connector-curvature="0"
       d="m 112.79537,342.50266 20.01133,14.02493 c -1.026,0.34226 -1.88119,0.6844 -2.56559,1.36826 -0.34214,0.34214 -0.6844,1.02654 -1.36814,1.7104 l -18.3016,26.34067 c -0.51306,0.8552 -1.026,1.53907 -1.36826,2.052 -0.34214,0.85533 -0.34214,1.88187 -0.34214,2.73707 l -18.130264,-12.82814 3.763067,-5.47346 c 0.342133,1.02653 0.8552,1.88173 1.026,2.22346 0.6844,0.51347 1.197466,1.19734 2.052666,1.88174 l 8.722931,6.15733 1.36867,-1.88133 -11.289067,-8.03894 3.079199,-4.27613 11.288538,8.03907 13.512,-19.3276 -10.60467,-7.526 c -1.02613,-0.68387 -2.05213,-1.19693 -2.73653,-1.36827 -0.34214,-0.1708 -1.026,-0.1708 -2.05254,-0.34213 z m 0.1708,1.36826 -2.73653,3.93374 c 0.68387,-0.1708 1.36827,-0.1708 2.05213,0.17093 0.6844,0.17133 1.36827,0.6844 2.22347,1.19733 l 10.9468,7.69693 -14.53853,20.69574 -11.288538,-7.8676 -2.052533,2.90773 11.288531,7.86773 -2.39426,3.24947 -9.236537,-6.32813 c -0.8552,-0.6844 -1.368134,-1.36814 -1.539067,-1.7104 -0.512933,-0.51307 -0.8552,-1.19734 -1.197333,-1.88174 l -2.736534,3.9344 16.077601,11.28854 c 0.17093,-0.17134 0.34227,-1.02667 0.6844,-1.36827 0.34173,-0.6844 0.8552,-1.3688 1.53907,-2.3948 l 18.13026,-25.99787 c 0.51294,-0.6844 1.02654,-1.3688 1.36814,-1.7104 0.34226,-0.51306 0.85533,-0.85533 1.5396,-1.02666 l -18.13014,-12.65667"
       style="fill:#000000;fill-opacity:1;fill-rule:evenodd;stroke:none;stroke-width:0.13333333"
       id="path22" /><path
       inkscape:connector-curvature="0"
       d="m 95.691106,330.01666 c 0.513067,-0.51294 1.197467,-1.02654 2.052667,-0.8552 0.855199,0 1.368266,0.34226 2.051999,0.8552 0.513598,0.51306 0.684398,1.19746 0.855338,2.05266 -0.17094,0.68387 -0.34174,1.53907 -0.855338,2.052 -0.683733,0.5136 -1.368133,0.85534 -2.223333,0.85534 -0.8552,0.17133 -1.368266,-0.51307 -1.881333,-1.02614 -0.6844,-0.51293 -1.026533,-1.026 -1.026533,-1.8812 0.171333,-0.8552 0.342133,-1.5396 1.026533,-2.05266 z m 0.513067,0.68386 c -0.342134,0.34227 -0.513067,0.6844 -0.513067,1.3688 0,0.51294 0.170933,1.026 0.513067,1.36827 0.342133,0.34213 0.8552,0.68373 1.368266,0.68373 0.684267,-0.1708 1.026533,-0.3416 1.368133,-0.68373 0.342267,-0.34227 0.6844,-1.02667 0.6844,-1.36827 0,-0.34226 -0.1708,-1.02653 -0.512933,-1.3688 -0.342267,-0.3416 -0.855333,-0.51293 -1.368266,-0.68386 -0.6844,-0.17134 -1.197467,0.34226 -1.5396,0.68386"
       style="fill:#000000;fill-opacity:1;fill-rule:evenodd;stroke:none;stroke-width:0.13333333"
       id="path24" /><path
       inkscape:connector-curvature="0"
       d="m 73.455773,295.97972 4.276,6.67027 c -0.8552,0.17133 -1.8812,0 -2.7364,0.34227 -0.513067,0.34213 -1.197467,0.51293 -2.052667,1.19733 l -6.328666,4.10467 6.499466,10.09173 c 0.5136,-0.34227 1.026534,-0.51307 1.881867,-1.02653 1.026,-0.68387 1.7104,-1.19694 2.223333,-1.53907 1.368267,-0.8552 2.736534,-1.88133 3.420934,-2.73653 1.197333,-0.8552 1.8812,-1.5396 2.223333,-2.5656 l 4.446933,6.8412 c -1.026,0 -1.8812,0 -2.736533,0.51346 -0.684267,0.34174 -1.7104,0.68387 -2.223333,1.026 l -5.302134,3.42094 c -3.9344,2.5656 -8.552133,4.276 -13.512533,5.302 -5.302,0.8552 -9.920266,0.51306 -14.367199,-0.68387 -4.789067,-1.53947 -8.039067,-3.76293 -9.749467,-6.6708 -0.342133,-0.34213 -0.342133,-0.51293 -0.512933,-0.51293 -0.170933,-0.34227 -0.342267,-0.6844 -0.342267,-1.02614 0.6844,0 1.5396,0 2.3948,-0.17133 0.683867,-0.34213 1.368267,-0.8552 2.052667,-1.36827 L 70.03484,299.74279 c 0.6844,-0.5136 1.368267,-1.02667 1.710533,-1.19747 0.8552,-0.8552 1.368133,-1.5396 1.7104,-2.5656 z m 0,1.8812 c -0.170933,0.51307 -0.8552,1.19747 -1.197467,1.5396 -0.512933,0.34227 -1.196799,0.8552 -1.881199,1.19747 l -26.682266,17.44573 c -0.683867,0.34227 -1.368267,0.8552 -1.7104,1.02614 -0.683867,0.17133 -1.197467,0.34213 -2.052667,0.6844 l 0.342133,0.51293 c 1.881867,2.73707 4.960533,4.61827 9.407333,5.98653 4.276,1.19734 8.722933,1.19734 13.683333,0.34214 4.789067,-0.6844 9.407333,-2.3948 13.3412,-4.9604 l 5.1312,-3.4208 c 1.196933,-0.68387 2.5656,-1.19694 3.933866,-1.36827 l -3.078666,-4.61773 c -0.171333,0.68386 -1.026533,1.36826 -1.7104,2.05213 -0.8552,0.6844 -2.052667,1.5396 -3.25,2.22347 -0.8552,0.51346 -1.7104,1.19733 -3.078667,2.05253 -1.197333,0.6844 -1.8812,1.02653 -1.8812,1.02653 l -7.526133,-11.45986 7.012533,-4.61827 c 0.6844,-0.3416 1.5396,-0.68387 2.052667,-1.026 0.512933,-0.34213 1.368133,-0.34213 1.7104,-0.51307 z m -11.117733,12.14374 7.013067,10.94693 c -1.881867,0.68387 -4.105334,1.36827 -6.4996,1.8812 -3.25,0.51307 -6.157733,0.6844 -8.894267,0.51307 -3.4208,-0.3416 -5.815066,-1.19694 -8.039066,-2.5656 z m -0.341733,1.19746 -14.880667,9.74947 c 1.8812,1.19733 4.276,1.7104 7.183867,1.7104 2.394267,0.1708 5.1312,0.1708 7.6968,-0.34213 2.394266,-0.34227 4.617733,-0.8552 5.986533,-1.7104 l -5.986533,-9.40734"
       style="fill:#000000;fill-opacity:1;fill-rule:evenodd;stroke:none;stroke-width:0.13333333"
       id="path26" /><path
       inkscape:connector-curvature="0"
       d="m 46.94484,272.88932 c 4.104667,-1.88133 8.038534,-2.224 10.775467,-1.53866 3.4208,1.02533 5.815066,3.24933 7.183333,6.328 l 5.8156,13.34066 c -0.8552,-0.34173 -1.8812,-0.34173 -2.5656,-0.1708 -0.8552,0.1708 -1.5396,0.34214 -2.3948,0.8552 l -29.589599,13.16974 c -0.8552,0.34213 -1.7104,0.6844 -2.052534,1.02653 -0.8552,0.68387 -1.5396,1.53907 -2.052666,2.39427 -1.197333,-3.93387 -1.368267,-8.20987 -0.512934,-12.99894 0.684267,-4.95986 2.394667,-9.23586 4.9604,-13.17 2.7364,-4.276 6.328134,-7.52533 10.433333,-9.236 z m 0.342134,1.02667 c -3.9344,1.71067 -7.183867,4.44667 -9.749467,8.552 -2.5656,3.42 -4.276,7.69613 -5.1312,12.4852 -1.026133,4.276 -0.8552,8.03907 0,11.63067 0.342134,-0.68387 1.026,-1.026 1.539467,-1.36827 0.513067,-0.51293 1.368267,-0.8552 2.052133,-1.1968 l 29.247866,-12.99947 c 0.855334,-0.34173 1.710534,-0.68386 2.3948,-0.68386 0.513067,-0.34214 1.026134,-0.34214 1.710534,-0.17134 L 64.04844,278.36266 c -1.368267,-3.07867 -3.4208,-5.132 -6.328133,-5.98667 -2.907867,-0.85467 -6.499467,-0.34267 -10.433333,1.54 z m 1.709866,2.90667 c 2.907867,-1.368 5.473467,-1.71067 7.696934,-0.85467 2.052533,0.85467 3.420799,2.224 4.447333,4.44667 l 3.249466,7.18386 -27.879066,12.31507 c -0.5136,-3.93387 0.3416,-8.20987 2.7364,-12.99893 2.223467,-4.96 5.644267,-8.38134 9.748933,-10.092 z m 0.5136,0.856 c -3.763066,1.70933 -7.013066,4.78933 -9.236533,9.236 -2.223333,4.276 -3.249466,8.03853 -2.9072,11.63066 l 25.826533,-11.45986 -2.907333,-6.32814 c -0.8552,-1.88133 -2.052534,-3.25066 -3.933867,-3.93466 -2.052533,-0.51334 -4.276,-0.34134 -6.8416,0.856"
       style="fill:#000000;fill-opacity:1;fill-rule:evenodd;stroke:none;stroke-width:0.13333333"
       id="path28" /><path
       inkscape:connector-curvature="0"
       d="m 12.907815,248.77199 c 0.683853,0.34267 1.710413,0.68533 2.736453,0.856 0.855213,0.17067 1.710413,0.34133 2.736466,0.34133 3.07916,-0.17066 6.32864,-0.34133 9.74944,-0.34133 1.5396,0 5.644267,-0.17067 11.8016,-0.34267 3.592133,-0.17066 6.8416,-0.17066 9.407333,-0.17066 0.8552,-0.17067 1.5396,0 1.7104,-0.17067 0.8552,0 1.5396,-0.172 2.223467,-0.34267 0.8552,-0.17066 1.7104,-0.51333 2.223866,-0.85466 l 2.052134,8.72266 c -0.513067,0 -1.026,0 -1.368267,0 -0.683867,0 -1.197333,0.17067 -1.7104,0.17067 -0.513067,0.172 -1.197333,0.34267 -1.539067,0.34267 -0.513466,0.34133 -1.197333,0.51333 -1.7104,0.85466 -1.5396,0.684 -4.447466,1.88134 -8.209866,3.592 -4.618267,2.052 -8.381333,3.76267 -10.7756,4.96 -3.079066,1.368 -6.157733,2.908 -9.065066,4.276 -1.197387,0.51334 -2.22396,1.19734 -2.907814,1.71067 -0.684373,0.51333 -1.197386,1.19733 -1.539573,1.368 l -2.052093,-8.552 c 0.513027,0.34267 1.36824,0.51333 1.881253,0.34267 0.683853,0 1.368227,0 2.22344,-0.17067 0.342187,0 0.684373,-0.172 1.02604,-0.172 0.342187,-0.34133 0.684347,-0.34133 0.855147,-0.34133 1.5396,-0.85467 3.592266,-1.88134 5.986533,-2.908 4.9604,-2.224 8.209866,-3.76267 9.407333,-4.44667 3.933867,-1.71067 6.328533,-2.56533 7.183866,-2.908 -1.368266,0 -3.763066,0.34267 -7.354799,0.34267 -3.592134,0.34133 -7.354667,0.17066 -10.775467,0.34133 -2.3948,0.17067 -4.618266,0.17067 -6.499493,0.34267 -0.8552,-0.172 -1.539573,-0.172 -2.394787,0 -0.684373,0.17066 -1.368226,0.512 -1.881253,0.85466 -0.513013,0.17067 -1.02656,0.684 -1.539573,1.02667 z m 1.1974,1.36933 1.196866,5.644 c 0.342187,-0.17066 0.684374,-0.34266 1.1974,-0.684 0.684374,0 1.1974,-0.17066 1.710413,-0.34266 0.513027,0 1.02604,-0.17067 1.368227,-0.34134 0.513027,0 1.02656,-0.172 1.368227,0 l 28.905692,-1.02666 -26.339999,12.144 c -0.341733,0 -0.683867,0.17066 -1.026133,0.34133 -0.512987,0.172 -0.855174,0.172 -1.19736,0.34267 -0.683867,0 -1.36824,0.17066 -2.052614,0.17066 -0.513013,0.172 -0.8552,0.172 -1.368226,0 l 1.1974,5.816 c 0.684373,-0.51333 1.197386,-1.02666 1.710413,-1.19733 0.855213,-0.684 1.539587,-0.856 2.052653,-1.19733 3.078534,-1.19734 5.9864,-2.908 9.065067,-4.276 2.5656,-1.19734 6.157333,-2.908 10.9464,-4.78934 4.447333,-2.224 7.525999,-3.42133 8.039066,-3.76266 0.512933,-0.34267 1.026,-0.51334 1.7104,-0.684 0.512933,-0.172 1.197333,-0.34267 1.8812,-0.51334 0.513067,-0.17066 0.8552,-0.17066 1.197467,-0.17066 0.1708,-0.172 0.512933,0 0.684266,0 l -1.5396,-6.5 c 0,0.17066 -0.342133,0.17066 -0.684266,0.34266 -0.341734,0 -0.513067,0 -0.513067,0 -0.513067,0.17067 -1.026,0.34134 -1.7104,0.512 -0.683867,-0.17066 -1.539067,-0.17066 -2.5656,0 l -30.787026,0.856 c -0.684373,0 -1.539586,-0.17066 -2.394786,0 -0.855214,-0.17066 -1.539067,-0.34266 -2.05208,-0.684"
       style="fill:#000000;fill-opacity:1;fill-rule:evenodd;stroke:none;stroke-width:0.13333333"
       id="path30" /><path
       inkscape:connector-curvature="0"
       d="m 51.56244,211.82799 2.052667,24.45867 c -0.683867,-0.51334 -1.539067,-0.856 -2.394267,-0.856 -0.8552,-0.17067 -1.5396,-0.17067 -2.5656,0 l -31.984412,2.73733 c -1.02656,0.17067 -1.88176,0.17067 -2.223947,0.34267 -1.026053,0.34133 -1.881253,0.85466 -2.565626,1.53866 L 10,217.81466 l 6.670828,-0.684 c -0.513533,1.02533 -0.684373,1.88133 -0.8552,2.39466 -0.17136,0.684 -0.17136,1.53867 -0.17136,2.736 l 1.02656,10.604 2.22344,-0.17066 -1.197387,-13.85467 5.302093,-0.512 1.197334,13.85333 23.603732,-2.052 -1.197466,-12.99866 c 0,-1.19733 -0.342134,-2.224 -0.512934,-3.07867 -0.171466,-0.172 -0.6844,-0.68533 -1.197466,-1.54 z m -0.8552,1.02667 -4.789066,0.34133 c 0.6844,0.684 1.026666,1.19734 1.197466,1.88134 0.171334,0.51333 0.342134,1.368 0.342134,2.39466 l 1.197466,13.512 -25.314132,2.224 -1.19736,-13.85467 -3.591667,0.172 1.1974,13.85334 -3.933853,0.34266 -1.02656,-11.28933 c 0,-1.02533 0.171347,-1.88133 0.171347,-2.39333 0.17084,-0.68534 0.513026,-1.19867 0.683853,-1.88267 l -4.789053,0.34267 1.710413,19.66933 c 0.342187,-0.17067 1.02604,-0.34133 1.539587,-0.34133 0.683853,-0.34267 1.539053,-0.34267 2.736453,-0.51334 l 31.642239,-2.73733 c 0.8552,0 1.7104,-0.17067 2.3948,0 0.512933,0 1.197333,0 1.7104,0.34267 l -1.881867,-22.064"
       style="fill:#000000;fill-opacity:1;fill-rule:evenodd;stroke:none;stroke-width:0.13333333"
       id="path32" /><path
       inkscape:connector-curvature="0"
       d="m 55.49684,181.89599 -1.026533,7.868 c -0.683867,-0.684 -1.368267,-1.19733 -2.223467,-1.368 -0.6844,-0.34266 -1.368133,-0.34266 -2.3948,-0.51333 l -10.261999,-1.19733 -18.301493,10.43333 27.024426,3.24933 c 1.026133,0.17067 1.7104,0.17067 2.223466,0.17067 1.026,-0.17067 2.052667,-0.512 2.736534,-1.02533 l -1.026134,8.03866 c -0.512933,-0.684 -1.368133,-1.19733 -2.223466,-1.368 -0.684267,-0.34266 -1.368134,-0.34266 -2.394667,-0.51333 l -31.813079,-3.93467 c -1.02656,0 -1.881773,-0.17066 -2.3948,0 -1.02604,0 -1.88124,0.34267 -2.736453,0.856 l 1.19688,-8.72266 c 0.342186,0.17066 0.8552,0.17066 1.368746,0.34133 0.513014,0 1.02604,0.17067 1.710414,0 0.341666,-0.17067 0.855213,-0.17067 1.19688,-0.34133 1.881773,-1.02667 3.763013,-2.224 5.644266,-3.25067 0.513547,-0.17067 2.394747,-1.19733 5.302613,-2.90667 1.196934,-0.68533 2.394267,-1.36933 3.5916,-2.224 l -12.656706,-1.54 c -1.026573,0 -1.881773,-0.17066 -2.3948,0 -1.02604,0 -2.0526,0.34267 -2.736453,0.856 l 1.02604,-7.868 c 0.684373,0.51334 1.368226,1.02667 2.22344,1.19734 0.8552,0.34133 1.710413,0.684 2.565626,0.684 l 31.813519,3.93333 c 0.8552,0.172 1.7104,0 2.223467,0.172 1.026533,-0.172 1.881733,-0.51333 2.736933,-1.02667 z m -1.026533,1.54 c -0.683867,0.34134 -1.368267,0.34134 -2.052533,0.34134 -0.683867,0 -1.539067,-0.17067 -2.223467,-0.17067 l -31.471386,-3.93467 c -1.02604,0 -2.052093,-0.17066 -2.565626,-0.34133 -0.683854,-0.17067 -1.19688,-0.34267 -1.539067,-0.856 l -0.684373,4.61867 c 0.342186,0 1.02656,-0.17067 1.539586,-0.17067 0.8552,0 1.88124,0.17067 3.07864,0.34133 l 14.880226,1.71067 c -1.026,0.684 -1.7104,1.19733 -2.736533,1.54 -2.223333,1.368 -4.4468,2.736 -6.670266,3.93333 -2.223947,1.368 -4.789574,2.56534 -7.696867,4.10534 -0.342186,0.34133 -0.8552,0.34133 -1.368226,0.51333 -0.513534,0.17067 -1.1974,0.17067 -1.710414,0.17067 -0.17136,0 -0.342186,0 -0.684373,-0.34267 l -0.684373,5.98667 c 0.342186,0 1.02656,-0.17067 1.539573,-0.17067 0.684387,0 1.539587,0.17067 2.736467,0.17067 l 31.471412,3.93333 c 1.026533,0.172 1.881733,0.172 2.394667,0.34267 0.683866,0.172 1.197466,0.51333 1.710533,0.684 l 0.512933,-4.78934 c -0.512933,0.34267 -1.197333,0.34267 -1.8812,0.34267 -1.026533,0 -1.7104,-0.17067 -2.5656,-0.17067 l -29.419306,-3.592 21.209307,-11.80266 10.261999,1.19733 c 1.026667,0.172 1.881867,0.172 2.3948,0.34267 0.513067,0.17066 1.026134,0.51333 1.5396,0.684 l 0.683867,-4.61734"
       style="fill:#000000;fill-opacity:1;fill-rule:evenodd;stroke:none;stroke-width:0.13333333"
       id="path34" /><path
       inkscape:connector-curvature="0"
       d="m 23.683374,140.33333 c 1.368134,0.34266 2.394267,1.53866 3.249467,3.24933 0.513467,1.54 0.6844,3.25067 0.171333,4.78933 l -1.368266,4.276 30.444799,9.92 c 0.8552,0.172 1.5396,0.51334 2.052666,0.51334 1.026,0.17066 2.052534,0 2.907734,-0.34134 l -2.3948,7.52534 c -0.683867,-0.684 -1.368133,-1.19734 -2.223333,-1.71067 -0.513067,-0.34267 -1.026134,-0.51333 -2.052667,-0.85467 l -30.444799,-9.92133 -1.5396,4.78933 c -0.512987,1.36934 -0.684347,3.08 -0.34216,4.96134 l -5.986453,-1.88134 6.499413,-20.184 c 0.342266,-0.85466 0.5136,-1.88133 0.855333,-3.07866 0,0 0,-0.684 0.171333,-2.052 z m 0.342134,1.19733 c 0,1.02667 0,1.71067 0,2.224 0,0.85467 -0.342134,1.53867 -0.513467,2.22267 l -6.15736,19.156 4.276053,1.36933 c -0.513026,-1.71067 -0.513026,-3.07867 -0.17084,-4.61867 l 1.881214,-5.30266 31.129199,10.092 c 1.197467,0.34266 1.7104,0.856 2.223467,1.02666 0.513466,0.17067 1.197333,0.512 1.539599,0.85467 l 1.5396,-4.44667 c -0.5136,0 -1.3688,0.17067 -2.052666,0 -0.6844,-0.34266 -1.368267,-0.34266 -2.223467,-0.684 l -31.129599,-10.092 1.539467,-4.96 c 0.513066,-1.368 0.513066,-2.736 0.342266,-4.276 -0.513066,-1.02666 -1.197466,-2.052 -2.223466,-2.56533"
       style="fill:#000000;fill-opacity:1;fill-rule:evenodd;stroke:none;stroke-width:0.13333333"
       id="path36" /><path
       inkscape:connector-curvature="0"
       d="m 77.38964,127.50533 c -2.565734,3.93333 -6.841733,6.5 -11.9724,8.552 -4.960533,2.052 -9.9204,3.24933 -15.0516,3.24933 -4.9604,0.34267 -9.236533,-0.51333 -12.485999,-2.052 -1.026534,-0.51333 -2.223334,-1.19733 -2.907734,-1.71067 -0.8552,-0.684 -1.5396,-1.19733 -1.7104,-1.88133 -0.513066,-0.51333 -1.197466,-0.856 -1.5396,-1.368 -0.513066,-0.17067 -0.855199,-0.684 -1.368266,-0.856 -0.342133,-0.17067 -0.683867,-0.34133 -0.8552,-0.512 -0.1708,0 -0.683867,0 -1.026,0 l 3.933866,-7.868 c 0.8552,1.88133 1.7104,3.592 2.3948,4.61733 1.1968,1.71067 2.394267,2.908 4.104667,3.76267 2.907733,1.54 6.328666,2.05333 9.749466,2.39467 3.249467,0.172 6.499467,-0.34134 9.748933,-1.368 2.907867,-0.51334 5.473467,-1.71067 7.183867,-3.07867 L 41.129107,116.89999 c -0.8552,-0.512 -1.7104,-0.85466 -2.223333,-0.85466 -1.026133,-0.34134 -1.881333,-0.17067 -2.736533,-0.17067 l 3.591733,-7.012 c 0.512933,0.68267 1.026,1.368 1.7104,1.88 0.6844,0.51333 1.197333,1.19733 2.052533,1.54 l 28.734399,14.70933 c 0.8552,0.34267 1.7104,0.51334 2.5656,0.856 0.6844,0 1.5396,0.17067 2.565734,-0.34266 z m -1.710534,1.19733 c -0.8552,0 -1.1968,-0.172 -2.052,-0.34267 -0.5136,-0.17066 -1.3688,-0.512 -1.881733,-0.85466 L 43.352574,112.96666 c -1.026,-0.51333 -1.8812,-0.85467 -2.394267,-1.19733 -0.512933,-0.34134 -0.8552,-0.85467 -1.026533,-1.19734 l -2.223467,4.276 c 0.342267,0 1.026534,0.17067 1.5396,0.34267 0.513067,0.17067 1.368267,0.51333 2.394267,1.02667 l 25.656266,13.16933 c -1.8812,1.368 -4.618267,2.73733 -7.696933,3.76267 -3.4208,1.368 -6.8416,1.71066 -10.433333,1.54 -3.933734,0 -7.354667,-0.856 -10.2624,-2.39467 -1.7104,-0.856 -2.907867,-1.88133 -4.104667,-3.42133 -0.6844,-1.19734 -1.5396,-2.39467 -2.052666,-4.276 l -2.907867,5.644 c 0.170934,0.172 0.6844,0.34266 1.026134,0.51333 0.513466,0.34267 1.197333,0.684 1.710399,0.856 0.171334,0.51333 0.8552,0.85467 1.026534,1.53867 0.513066,0.684 1.368266,1.19733 2.052666,1.88133 0.8552,0.34267 1.8812,0.85467 2.7364,1.36933 3.078667,1.53867 6.841733,2.22267 11.8016,2.22267 4.789067,-0.34133 9.578666,-1.02667 14.025466,-2.73733 5.131334,-2.052 9.065067,-4.61734 11.459333,-7.18267"
       style="fill:#000000;fill-opacity:1;fill-rule:evenodd;stroke:none;stroke-width:0.13333333"
       id="path38" /><path
       inkscape:connector-curvature="0"
       d="m 96.033373,102.19066 -5.302667,7.01333 c -0.1708,-0.17066 -0.512933,-0.51333 -0.512933,-0.85466 -0.513067,-0.34267 -0.683867,-0.856 -1.026134,-1.02667 -0.342133,-0.34267 -0.8552,-0.51333 -1.368266,-0.684 -0.513467,-0.172 -1.026534,-0.34267 -1.368667,-0.51333 -1.7104,-0.51334 -3.933866,-1.02667 -5.815066,-1.71067 -0.513067,-0.17067 -2.3948,-0.85467 -5.644267,-1.88133 -2.223467,-0.85467 -3.592266,-1.368 -3.592266,-1.368 l 2.394799,8.38 6.841734,5.132 c 0.683733,0.51333 1.368133,1.02666 2.052533,1.19733 0.683867,0.51333 1.7104,0.51333 2.736533,0.51333 l -4.789066,6.49867 c -0.342267,-1.02533 -0.8552,-1.71067 -1.368267,-2.39333 -0.513067,-0.51334 -1.026533,-1.02667 -1.881733,-1.54 L 51.904707,99.625328 c -0.8552,-0.513333 -1.539067,-1.196 -1.881333,-1.196 -1.026534,-0.514667 -2.052534,-0.685333 -2.7364,-0.514667 L 58.06244,83.377328 c 1.026133,-1.197333 1.881333,-2.053333 2.907333,-2.394666 1.197467,-0.513334 2.223467,0 3.25,0.854666 0.683867,0.513334 1.197467,1.197334 1.7104,1.881334 0.342267,0.684 0.683867,1.54 1.197467,2.737333 0.1708,1.025333 0.683867,2.565333 1.368133,4.96 0.170934,1.026666 0.855334,2.222666 1.026134,3.762666 0.8552,0.170667 2.394799,0.854667 4.275999,1.368 3.591734,1.197334 6.157334,2.053334 7.525467,2.394667 2.565733,0.856 5.131333,1.710662 7.696933,2.394662 1.197467,0.34267 2.3948,0.51334 3.763067,0.85467 0.6844,0 1.7104,0 3.25,0 z m -1.3688,0.51333 c -1.026,0.172 -1.8812,0.172 -2.5656,0 -1.368267,0 -2.223467,-0.17066 -3.420267,-0.51333 -1.710533,-0.512 -4.618266,-1.368 -8.381333,-2.735999 -2.394267,-0.854666 -5.1312,-1.710666 -8.039067,-2.565333 -1.025999,-0.170667 -2.394266,-0.856 -3.420266,-1.197333 l -2.5656,-8.894667 c -0.342267,-1.025333 -0.6844,-1.881333 -1.026667,-2.565333 -0.512933,-0.854667 -0.8552,-1.197333 -1.539066,-1.710667 -0.8552,-0.684 -1.7104,-1.025333 -2.394667,-0.684 -1.026133,0.342667 -1.710533,1.026667 -2.565733,2.053334 L 48.99684,97.059995 c 0.171334,0 0.8552,0.170666 1.3688,0.513333 0.513067,0.170667 1.1968,0.856 2.223467,1.538667 l 25.142666,18.985335 c 0.8552,0.68533 1.5396,1.19866 2.052667,1.36933 0.512933,0.684 0.684266,1.19733 1.197333,1.53867 l 2.7364,-3.93334 c -0.684267,0.17067 -1.197333,-0.172 -1.7104,-0.51333 -0.6844,-0.51333 -1.368133,-1.02667 -2.052533,-1.368 l -6.841734,-5.30267 -3.078666,-9.919995 c 0.8552,0.341335 1.881866,0.513335 2.737066,0.854665 2.7364,1.02667 4.959867,1.71067 6.670267,2.224 2.907867,1.02667 5.302133,1.71067 7.183866,2.22267 0.683867,0.172 1.026,0.34266 1.539067,0.51466 0.5136,0.34134 1.197333,0.512 1.5396,0.85467 0.513067,0.34133 0.8552,0.85467 1.026,1.19733 z m -33.0104,-14.537328 c 0.513067,0.512 0.8552,0.684 1.368267,1.368 0.1708,0.513333 0.342133,1.025333 0.8552,1.538666 0.512933,2.394667 1.197333,4.618667 1.8812,6.329333 0.5136,2.052 1.026533,4.275999 1.7104,6.157329 0.171333,1.02534 0.5136,2.052 0.8552,2.736 l -14.538,-10.774662 4.617733,-6.157333 c 0.6844,-0.856 1.3688,-1.369333 1.7104,-1.710667 0.513067,0 1.026534,0.170667 1.5396,0.513334 z m -0.342133,0.854666 c -0.513067,-0.342666 -0.6844,-0.342666 -0.855333,-0.342666 -0.342134,0.172 -0.683734,0.513333 -1.197334,1.197333 l -4.104666,5.473333 11.630666,8.724002 c -0.171333,0 -0.512933,-1.36934 -1.026533,-3.42134 -0.513067,-1.539995 -1.1968,-3.249329 -1.368267,-4.789329 -0.8552,-2.224 -1.368133,-3.933333 -1.539066,-4.446666 0,-0.513333 -0.513467,-1.026667 -0.684267,-1.368 -0.170933,-0.513333 -0.6844,-0.856 -0.8552,-1.026667"
       style="fill:#000000;fill-opacity:1;fill-rule:evenodd;stroke:none;stroke-width:0.13333333"
       id="path40" /><path
       inkscape:connector-curvature="0"
       d="M 117.41297,83.890662 98.940572,99.967995 c 0,-1.026667 -0.3416,-1.710667 -0.855199,-2.565334 -0.1708,-0.684 -0.683867,-1.197333 -1.368134,-2.053333 L 75.679106,71.233329 c -0.512933,-0.684 -1.1968,-1.369334 -1.7104,-1.54 -0.8552,-0.684 -1.7104,-1.025334 -2.565599,-1.197334 l 16.761999,-14.709333 4.447333,5.132 c -1.026533,0.341334 -1.881733,0.512 -2.394666,0.684 -0.683867,0.513334 -1.368267,0.854667 -2.223467,1.538667 l -8.039066,7.013333 1.368133,1.709333 10.433866,-9.063999 3.591734,3.933333 -10.433334,9.065333 15.393731,17.788 9.92027,-8.552 c 0.8552,-0.684 1.53907,-1.538667 2.05213,-2.222667 0,-0.172 0.34214,-1.026667 0.6844,-1.882667 z m -1.36813,0 -3.07867,-3.593334 c -0.1708,0.856 -0.34226,1.369334 -0.6844,1.882667 -0.51306,0.513333 -1.026,1.197333 -1.8812,1.881333 l -10.26253,8.722667 -16.590667,-19.156 10.604133,-9.065333 -2.223333,-2.736 -10.6048,9.064 -2.7364,-2.906667 8.552133,-7.354666 c 0.8552,-0.685333 1.7104,-1.026667 2.223333,-1.369333 0.513067,-0.341334 1.197467,-0.341334 1.881867,-0.512 l -3.0792,-3.593334 -14.880266,12.829333 c 0.342266,0.170667 1.026133,0.684 1.368266,1.025334 0.513067,0.342666 1.197467,1.026666 1.881334,1.881333 l 20.695733,23.945333 c 0.6844,0.513333 1.197466,1.197333 1.539599,1.882666 0.342267,0.341334 0.513067,0.854667 0.6844,1.710667 L 116.04484,83.890662"
       style="fill:#000000;fill-opacity:1;fill-rule:evenodd;stroke:none;stroke-width:0.13333333"
       id="path42" /><path
       inkscape:connector-curvature="0"
       d="m 143.2407,67.641329 -7.69746,4.618666 c -0.1708,-0.342666 -0.1708,-0.685333 -0.1708,-1.197333 -0.17134,-0.342667 -0.34227,-0.856 -0.51307,-1.198667 -0.17133,-0.341333 -0.6844,-0.854666 -0.8552,-1.196 -0.51307,-0.342666 -0.8552,-0.684 -1.19747,-0.856 -1.36813,-1.368 -3.24999,-2.565333 -4.61813,-3.762666 -0.51306,-0.513333 -1.88133,-1.710667 -4.44693,-3.933333 -2.05253,-1.710667 -2.90773,-2.565334 -2.90773,-2.565334 l -1.02614,8.722667 4.44694,7.184 c 0.51306,0.854666 0.8552,1.538666 1.36826,1.881333 0.68427,0.854667 1.36814,1.197333 2.3948,1.538667 l -7.01253,4.105333 c 0.1708,-0.856 0.1708,-1.710667 -0.34227,-2.737333 -0.17133,-0.512 -0.51293,-1.026667 -1.02653,-2.052 L 103.21671,48.826663 c -0.51307,-0.854667 -1.02614,-1.538667 -1.36827,-2.052 -0.68387,-0.684 -1.53907,-1.197334 -2.394268,-1.54 l 15.564538,-9.406667 c 1.36826,-0.684 2.56573,-1.026666 3.42093,-1.026666 1.1968,0 2.22333,0.684 2.9072,1.881333 0.34227,0.684 0.6844,1.710666 0.8552,2.565333 0,0.685333 0,1.710667 0,2.908 -0.1708,1.026667 -0.3416,2.908 -0.68387,5.132 0,1.197333 0.17094,2.565333 -0.34213,3.933333 0.8552,0.684 2.05267,1.710667 3.59173,2.736 2.73694,2.566667 4.78894,4.276 5.9864,5.132 2.05253,1.710667 4.1052,3.42 6.32867,5.130667 0.8552,0.855999 2.05253,1.367999 2.90773,2.223999 0.68387,0.341334 1.88133,0.684 3.25013,1.197334 z m -1.71106,0 c -0.8552,-0.170667 -1.53907,-0.684 -2.22334,-1.026667 -1.02613,-0.512 -2.05266,-1.026667 -2.90786,-1.709333 -1.36827,-1.026667 -3.76254,-3.078667 -6.67027,-5.645333 -1.88186,-1.709334 -4.44746,-3.42 -6.49946,-5.302667 -1.02667,-0.854667 -1.88187,-1.709333 -2.90787,-2.565333 l 1.026,-9.065333 c 0.17133,-1.025334 0.17133,-2.222667 0,-2.906667 -0.1708,-0.856 -0.3416,-1.54 -0.68387,-2.224 -0.51293,-0.854666 -1.36813,-1.368 -2.05253,-1.368 -1.19747,-0.170666 -2.22347,0.341334 -3.25,0.854667 l -14.02507,8.552 c 0.34227,0 0.8552,0.684 1.19747,1.026666 0.51293,0.513334 1.026,1.197334 1.53907,2.224 l 16.41973,27.194666 c 0.5136,0.856 0.8552,1.538667 1.19747,2.053334 0.17133,0.683999 0.17133,1.195999 0.34213,1.709333 l 4.10467,-2.565333 c -0.68387,-0.170667 -1.1968,-0.684 -1.53907,-1.197334 -0.34213,-0.684 -0.6844,-1.368 -1.026,-1.881333 l -4.61827,-7.525333 1.02614,-10.433333 c 0.68426,0.684 1.53946,1.368 2.22333,2.052 2.22347,1.710666 3.93387,3.078666 5.30267,4.446666 2.39426,1.881334 4.27599,3.421333 5.98639,4.618667 0.17094,0.513333 0.68387,0.684 1.02614,1.197333 0.34213,0.341333 0.8552,0.854667 1.026,1.197333 0.34213,0.512 0.51306,1.197334 0.51306,1.538667 z M 116.55777,41.642663 c 0.34227,0.684 0.6844,1.026666 0.6844,1.881333 0.1708,0.513333 0,1.197333 0.34227,1.710667 -0.34227,2.565333 -0.6844,4.789333 -0.6844,6.670666 -0.34227,2.224 -0.6844,4.446667 -0.6844,6.5 0,0.854667 -0.34173,1.881333 -0.34173,2.736 l -9.2364,-15.564 6.49946,-3.934666 c 1.02654,-0.684 1.7104,-0.854667 2.22347,-0.684 0.51347,-0.170667 0.8552,0.172 1.19733,0.684 z m -0.68386,0.684 c -0.34214,-0.341334 -0.34214,-0.512 -0.68427,-0.512 -0.34227,0 -0.8552,0.341333 -1.5396,0.684 l -5.8152,3.592 7.5256,12.485333 c -0.1708,-0.170667 0,-1.538667 0.34213,-3.762667 0,-1.54 0.17134,-3.249333 0.51307,-4.789333 0,-2.565333 0.34213,-4.105333 0.17133,-4.789333 0.1708,-0.513334 0.1708,-1.025334 0,-1.538667 -0.17133,-0.513333 -0.34213,-1.026667 -0.51306,-1.369333"
       style="fill:#000000;fill-opacity:1;fill-rule:evenodd;stroke:none;stroke-width:0.13333333"
       id="path44" /><path
       inkscape:connector-curvature="0"
       d="m 156.41004,23.683997 c -0.85467,-0.170667 -1.71067,-0.342667 -2.22267,-0.170667 -0.51333,0 -1.19733,0 -1.71067,0.170667 -0.856,0.513333 -1.36933,1.026666 -1.71066,2.051999 -0.17067,0.856 -0.17067,1.710667 0.17066,2.566667 0.34267,1.025333 1.368,2.736 2.73734,4.446667 1.19733,1.710666 2.56533,3.592 3.76266,5.473333 1.368,1.881333 2.56534,3.592 3.24934,5.473333 1.88133,4.446667 1.71066,8.722666 0,12.485333 -1.88134,4.105333 -4.788,6.670667 -9.06534,8.381333 -0.85466,0.342667 -1.53866,0.684 -2.56533,0.854667 -0.85467,0.342666 -1.88133,0.685333 -2.736,1.026666 l -2.56667,-6.157333 c 1.36934,0.170667 2.39467,0.170667 3.42134,0 0.85466,-0.170666 1.54,-0.513333 2.73733,-0.856 2.736,-1.197333 4.61733,-3.078666 5.472,-5.814666 0.51467,-2.394667 0.51467,-5.130667 -0.684,-8.038667 -0.85467,-1.881333 -1.70933,-3.762666 -3.07867,-5.644 -1.368,-1.882666 -2.39466,-3.421333 -3.592,-4.961333 -1.368,-1.881333 -2.39333,-3.590666 -2.90666,-4.788 -0.856,-2.053333 -0.856,-4.277333 -0.172,-6.157333 0.856,-2.396 2.56666,-3.934666 5.132,-4.961333 0.684,-0.170667 1.368,-0.513333 1.88133,-0.684 0.684,-0.170667 1.368,-0.341333 2.052,-0.684 z m -1.19734,-0.684 -1.88133,-4.276 c -0.34133,0.170666 -1.02667,0.513333 -1.368,0.513333 -0.684,0.170667 -1.19733,0.341333 -1.71067,0.513333 -2.224,1.025334 -3.592,2.565334 -4.44666,4.446667 -0.856,1.881333 -0.684,3.933333 0.17066,5.814666 0.51334,1.197334 1.54,2.908 2.73734,4.789334 1.19733,1.54 2.56533,3.421333 3.93333,5.131999 1.19733,1.881334 2.052,3.762667 2.736,5.473334 1.19733,3.078666 1.54,5.985333 0.856,8.722666 -1.02667,2.736 -2.908,4.618667 -5.816,5.814667 -1.19733,0.513333 -1.88133,0.856 -2.736,0.856 -0.856,0.341333 -1.368,0.512 -2.56533,0.341333 l 1.70933,4.276 c 0.68533,0 1.19733,-0.170667 2.224,-0.512 1.02667,-0.172 1.71067,-0.513333 2.39467,-0.685333 3.93333,-1.710667 6.67066,-4.617334 8.38133,-8.209334 1.71067,-3.934666 1.53867,-8.038666 0,-12.143999 -0.85467,-1.881334 -1.71067,-3.592 -3.07867,-5.473334 -1.36933,-1.881333 -2.73733,-3.762666 -3.93466,-5.473333 -1.19734,-1.881333 -2.22267,-3.42 -2.736,-4.617333 -0.34267,-1.026667 -0.34267,-1.881333 -0.34267,-2.908 0.34267,-0.856 1.19733,-1.881333 2.05333,-2.224 0.684,-0.170666 1.19734,-0.341333 1.88134,-0.341333 0.17066,0.170667 0.85466,0 1.53866,0.170667"
       style="fill:#000000;fill-opacity:1;fill-rule:evenodd;stroke:none;stroke-width:0.13333333"
       id="path46" /><path
       inkscape:connector-curvature="0"
       d="m 190.7887,50.366663 c 0,0.684 -0.17066,1.709333 -0.512,2.222666 -0.51333,0.684 -1.02666,0.684 -1.88133,0.856 -0.68533,0.170667 -1.54,0.341333 -2.224,-0.172 -0.684,-0.341333 -1.19733,-1.197333 -1.19733,-1.881333 -0.17067,-0.854667 0,-1.538667 0.51333,-2.222667 0.34133,-0.684 1.19733,-1.026666 1.88133,-1.197333 0.85467,-0.172 1.53867,0 2.224,0.513333 0.512,0.512 1.02534,1.025334 1.196,1.881334 z m -0.85466,0.170666 c -0.17067,-0.513333 -0.34134,-1.026666 -0.856,-1.368 -0.512,-0.342666 -1.02534,-0.342666 -1.53867,-0.342666 -0.51333,0.170666 -1.02533,0.342666 -1.368,0.854666 -0.172,0.514667 -0.34267,1.026667 -0.172,1.54 0,0.513333 0.34267,1.026667 0.68533,1.368 0.34134,0.172 1.02534,0.342667 1.53867,0.172 0.51333,0 0.85467,-0.342667 1.19733,-0.685333 0.51334,-0.512 0.51334,-1.025333 0.51334,-1.538667"
       style="fill:#000000;fill-opacity:1;fill-rule:evenodd;stroke:none;stroke-width:0.13333333"
       id="path48" /><path
       inkscape:connector-curvature="0"
       d="m 234.2327,51.905329 c -7.52533,-1.538666 -13.85333,-5.302666 -18.81333,-10.604 -5.47333,-5.815999 -7.868,-11.973333 -7.868,-18.643999 0.17067,-3.933333 1.368,-7.184 3.76267,-9.577333 2.56533,-2.224 5.644,-3.0800001 9.40666,-3.0800001 l 9.75067,0.1720001 -0.172,7.525333 c -2.736,-1.710667 -5.644,-2.736 -8.20933,-2.736 -2.56667,0 -4.44667,0.684 -6.15734,2.052 -1.71066,1.538667 -2.56666,3.592 -2.73733,6.157333 0,3.934667 1.71067,7.868 4.78933,12.314667 2.908,3.934666 6.15734,6.841333 9.57867,8.551999 L 227.9047,26.24933 c 0,-1.025334 0,-1.881333 -0.17066,-2.394667 -0.17067,-1.025333 -0.34267,-1.881333 -1.02667,-2.565333 h 8.03867 c -0.51334,0.856 -1.196,1.710667 -1.368,2.565333 0,0.513334 -0.17067,1.369333 -0.17067,2.394667 l -0.34267,20.353333 c 0,1.197333 0.34267,2.566666 0.68534,4.105333 0.17066,0.342667 0.34133,1.026666 0.68266,1.197333 z m -1.368,-0.684 c -0.17066,-0.684 -0.512,-1.54 -0.512,-2.394666 -0.172,-0.854667 -0.34266,-1.709334 -0.34266,-2.394667 L 232.3527,26.42133 c 0,-1.197334 0,-2.053333 0.17067,-2.566667 0,-0.513333 0.17067,-1.025333 0.512,-1.709333 h -4.61733 c 0,0.341333 0.17066,1.025333 0.17066,1.538667 0.172,0.684 0.172,1.539999 0.172,2.737333 l -0.34266,18.813333 c -2.39467,-0.854667 -4.96,-2.736 -7.35467,-5.130667 -2.56533,-2.394666 -4.78933,-5.132 -6.328,-8.038666 -1.54,-3.250667 -2.39467,-6.158667 -2.39467,-8.894667 0.17067,-2.908 1.19734,-5.130666 2.90667,-6.841333 1.71067,-1.538667 3.93467,-2.394667 6.5,-2.394667 1.368,0 2.56533,0.341334 3.93333,0.856 1.36934,0.512 2.56667,1.025334 3.764,1.881334 l 0.17067,-5.645333 -8.89467,-0.170667 c -3.59066,0 -6.328,0.854666 -8.72266,3.078666 -2.224,2.052 -3.42,5.130667 -3.592,8.722667 0,4.276 1.19733,8.381333 3.42133,12.314666 2.22267,3.764 4.96,7.184 8.89333,10.092 3.764,2.736 7.868,4.789333 12.144,6.157333"
       style="fill:#000000;fill-opacity:1;fill-rule:evenodd;stroke:none;stroke-width:0.13333333"
       id="path50" /><path
       inkscape:connector-curvature="0"
       d="m 264.67804,58.575996 c -4.276,-1.368 -7.86667,-4.618667 -11.288,-9.406667 -2.908,-4.105333 -5.30267,-8.552 -6.5,-13.683999 -1.70934,-4.789334 -1.88134,-9.064 -1.02534,-12.656 0.17067,-1.198667 0.512,-2.394667 0.85467,-3.078667 0.34267,-1.026666 0.85467,-1.881333 1.19733,-2.224 0.51334,-0.684 0.85467,-1.368 1.19734,-1.881333 0,-0.513333 0.34266,-1.026667 0.51333,-1.54 0,-0.170667 0.17067,-0.512 0.17067,-0.854667 0,-0.170666 0,-0.684 -0.17067,-1.026666 l 8.552,2.052 c -1.71067,1.197333 -3.07867,2.396 -3.93467,3.421333 -1.19733,1.54 -2.22266,3.078667 -2.56533,4.789333 -0.684,3.249333 -0.684,6.498667 0,10.092 0.684,3.078667 2.052,6.157333 3.42133,9.064 1.53867,2.737333 3.24934,4.789333 4.96,6.329333 l 6.15733,-26.853333 c 0.17067,-1.026666 0.34134,-1.881333 0.34134,-2.394666 0,-0.854667 -0.34134,-1.881334 -0.68267,-2.737334 l 7.86667,1.882667 c -0.684,0.682667 -1.19734,1.368 -1.53867,1.881333 -0.34267,0.854667 -0.684,1.709334 -0.856,2.565334 l -7.35466,31.470665 c -0.17067,0.856 -0.17067,1.710667 -0.17067,2.565334 0,0.856 0.17067,1.710666 0.85467,2.224 z m -1.53867,-1.025334 c 0,-0.685333 0,-1.369333 0,-2.053333 0,-0.684 0.17067,-1.54 0.34133,-2.224 l 7.184,-30.957332 c 0.17067,-1.197334 0.34267,-2.053334 0.684,-2.565334 0.172,-0.685333 0.51333,-1.026666 0.684,-1.369333 l -4.61733,-1.026667 c 0.17066,0.342667 0.17066,0.856 0,1.369334 0,0.684 -0.17067,1.538666 -0.34267,2.736 l -6.49866,28.050666 c -2.05334,-1.538667 -3.93467,-3.762667 -5.64534,-6.670667 -1.88133,-2.736 -3.07866,-6.157333 -3.93333,-9.577333 -1.02667,-3.762667 -1.02667,-7.356 -0.34267,-10.605333 0.51334,-1.709333 1.19734,-3.249333 2.39467,-4.788 1.02667,-1.026667 2.05333,-2.224 3.592,-3.078667 L 250.6527,13.42133 c 0,0.342667 -0.17066,0.684 -0.17066,1.026667 -0.17067,0.684 -0.34134,1.368 -0.684,1.881333 -0.17067,0.342667 -0.51334,1.025333 -1.02667,1.54 -0.512,0.512 -0.85467,1.368 -1.19733,2.393333 -0.512,0.856 -0.684,1.882667 -0.85467,2.908 -0.85467,3.421333 -0.51333,7.184 0.684,11.801333 1.368,4.789333 3.42133,9.237333 5.98667,13.341333 3.42133,4.276 6.67066,7.526667 9.74933,9.237333"
       style="fill:#000000;fill-opacity:1;fill-rule:evenodd;stroke:none;stroke-width:0.13333333"
       id="path52" /><path
       inkscape:connector-curvature="0"
       d="m 277.50737,63.706662 -7.52667,-3.077333 c 0.85467,-0.172 1.54,-1.026667 2.052,-1.54 0.34267,-0.684 0.68533,-1.368 1.02667,-2.224 L 285.0327,27.10533 c 0.34133,-0.856 0.684,-1.710667 0.684,-2.224 0.34133,-1.026667 0,-2.052 -0.172,-2.908 l 7.52667,3.078666 c -0.85467,0.684 -1.368,1.197334 -1.88134,1.710667 -0.51333,0.854667 -0.856,1.710667 -1.19733,2.394667 l -11.97333,29.761332 c -0.34134,0.684 -0.684,1.538667 -0.85467,2.052 -0.172,0.856 0,2.052 0.34267,2.736 z m -1.19734,-1.368 c -0.172,-0.512 0,-1.368 0.17067,-1.881333 0.17067,-0.684 0.512,-1.538667 0.684,-2.052 L 289.13803,28.98533 c 0.34134,-0.854667 0.68267,-1.88 1.02534,-2.393334 0.34266,-0.685333 0.684,-0.856 1.19733,-1.368 l -4.44667,-1.710666 c 0,0.341333 0,1.025333 -0.17066,1.538666 -0.34267,0.684 -0.68534,1.54 -1.02667,2.565334 l -11.97333,29.419999 c -0.34134,0.854667 -0.684,1.710667 -0.85467,2.222667 -0.17067,0.513333 -0.684,0.856 -1.02667,1.369333 l 4.448,1.709333"
       style="fill:#000000;fill-opacity:1;fill-rule:evenodd;stroke:none;stroke-width:0.13333333"
       id="path54" /><path
       inkscape:connector-curvature="0"
       d="M 302.47803,76.022662 283.15137,65.759995 c 0.684,-0.342666 1.53866,-0.854666 2.052,-1.539999 0.51333,-0.513334 0.85466,-1.197334 1.368,-2.052 L 301.4527,33.946663 c 0.512,-1.026667 1.02533,-1.710667 1.02533,-2.224 0.34267,-1.026667 0.172,-1.881333 0.172,-2.737333 l 7.012,3.764 c -1.53866,1.026666 -2.736,2.394666 -3.592,3.762666 l -14.70933,27.708 9.06533,4.789333 c 1.368,0.684 2.908,1.026666 5.13067,1.197333 z m -0.684,-1.197333 2.224,-4.276 c -1.54,0.170666 -2.908,-0.172 -4.10533,-0.685334 l -9.57867,-5.130666 15.052,-28.391999 c 0.684,-1.369334 1.71067,-2.565334 2.908,-3.592 l -4.44666,-2.394667 c -0.172,0.513333 -0.34267,1.197333 -0.68534,1.538667 0,0.856 -0.512,1.54 -1.02533,2.737333 l -14.88133,27.878666 c -0.512,0.856 -0.85467,1.710667 -1.02534,2.053333 -0.51333,0.513333 -1.02666,0.854667 -1.19733,1.197333 l 16.76133,9.065334"
       style="fill:#000000;fill-opacity:1;fill-rule:evenodd;stroke:none;stroke-width:0.13333333"
       id="path56" /><path
       inkscape:connector-curvature="0"
       d="m 335.4887,83.377328 c -2.908,3.592 -6.15733,5.644 -9.236,6.157334 -3.24933,0.684 -6.15733,-0.342667 -8.89333,-2.565334 l -11.28934,-9.065333 c 0.856,-0.170666 1.71067,-0.342666 2.39467,-1.026666 0.51333,-0.341334 0.85467,-1.026667 1.54,-1.710667 l 20.35333,-25.142666 c 0.684,-0.854667 1.19734,-1.538667 1.54,-2.052 0.512,-0.854667 0.512,-1.881333 0.68267,-2.737333 3.08,2.737333 4.96133,6.670666 6.5,11.289333 1.54,4.617333 1.88133,9.406666 1.36933,13.853333 -0.51466,5.132 -2.05333,9.578666 -4.96133,12.999999 z m -0.85467,-0.684 c 2.73734,-3.250666 4.44667,-7.183999 4.78934,-12.143999 0.684,-4.446667 0.34133,-8.722667 -1.02667,-13.341333 -1.02533,-4.276 -2.908,-7.697333 -5.30133,-10.262667 0,0.684 -0.34267,1.197334 -0.856,1.710667 -0.17067,0.684 -0.684,1.368 -1.368,2.052 l -20.012,24.801333 c -0.684,0.854666 -1.19734,1.538666 -1.71067,1.709333 -0.51333,0.514667 -0.684,0.856 -1.53867,1.026667 l 10.09067,8.210666 c 2.73733,2.052 5.47333,2.736 8.38133,2.222667 3.07867,-0.684 5.98667,-2.565334 8.552,-5.985334 z m -2.736,-1.881333 c -2.05333,2.565333 -4.27733,3.761333 -6.5,4.276 -2.224,0.170667 -4.10533,-0.514667 -5.98666,-2.053333 l -5.98667,-4.96 19.156,-23.602666 c 2.05333,3.42 3.42133,7.696 3.42133,12.998666 0.172,5.301333 -1.368,9.92 -4.104,13.341333 z m -0.856,-0.514667 c 2.56534,-3.249333 3.93467,-7.525333 4.10534,-12.313333 0.17066,-4.961333 -1.02667,-8.723999 -2.908,-11.973333 l -17.788,21.893333 5.47333,4.446667 c 1.71067,1.368 3.592,2.052 5.47333,1.710666 1.88134,-0.342666 3.76267,-1.54 5.644,-3.764"
       style="fill:#000000;fill-opacity:1;fill-rule:evenodd;stroke:none;stroke-width:0.13333333"
       id="path58" /><path
       inkscape:connector-curvature="0"
       d="m 343.01537,108.34933 c -0.51334,0.51333 -1.36934,0.85466 -2.05334,0.85466 -0.85466,-0.17066 -1.19733,-0.684 -1.88133,-1.19733 -0.34133,-0.51333 -0.85467,-1.02667 -0.85467,-1.88133 0,-0.856 0.51334,-1.54 1.02667,-2.052 0.512,-0.51334 1.19733,-0.856 2.052,-0.68534 0.85467,0 1.53867,0.51334 1.88133,1.02667 0.684,0.51333 1.02534,1.19733 0.85467,2.052 -0.17067,0.68533 -0.512,1.36933 -1.02533,1.88267 z m -0.51334,-0.51334 c 0.34134,-0.34266 0.51334,-0.856 0.684,-1.54 0,-0.512 -0.17066,-1.02666 -0.51333,-1.368 -0.34133,-0.51333 -0.85467,-0.684 -1.368,-0.684 -0.51333,0 -1.02667,0.17067 -1.36933,0.51334 -0.512,0.34133 -0.68267,0.85466 -0.68267,1.368 -0.172,0.51333 0,0.85466 0.34133,1.368 0.34134,0.34266 0.856,0.684 1.368,0.684 0.51334,0.172 1.02667,0 1.54,-0.34134"
       style="fill:#000000;fill-opacity:1;fill-rule:evenodd;stroke:none;stroke-width:0.13333333"
       id="path60" /><path
       inkscape:connector-curvature="0"
       d="m 386.1167,141.35999 c -5.644,3.24934 -10.94667,4.61734 -15.736,3.76267 -4.788,-0.856 -8.552,-3.76267 -11.11733,-8.38133 -2.56534,-4.44667 -3.24934,-8.89334 -1.53867,-13.16934 1.53867,-4.448 5.30133,-8.38133 10.604,-11.46 5.98667,-3.42133 11.28933,-4.78933 16.07867,-4.10533 4.61733,0.856 8.38,3.592 11.116,8.38133 2.73733,4.44667 3.07999,9.064 1.54,13.512 -1.71067,4.44667 -5.30134,8.20934 -10.94667,11.46 z m -0.51333,-0.684 c 5.30266,-3.08 8.89466,-6.84266 10.60533,-11.11866 1.71067,-3.93334 1.02533,-8.38134 -1.54,-12.65734 -2.56533,-4.61733 -5.98533,-7.35466 -10.43333,-8.03733 -4.61734,-0.51333 -9.92,0.68267 -15.564,3.93333 -5.30267,3.07867 -8.38134,6.67067 -10.092,10.94667 -1.71067,4.276 -1.19734,8.38133 1.368,12.65733 2.56666,4.44667 5.816,7.012 10.60533,7.86667 4.78933,0.51333 9.57867,-0.512 15.05067,-3.59067 z m -1.196,-3.42133 c -4.276,2.39467 -8.21067,3.592 -12.14534,3.07867 -3.93333,-0.17067 -7.18266,-2.052 -9.236,-5.644 -1.88133,-3.42134 -2.052,-6.84134 -0.512,-10.43467 1.70934,-3.42 4.44667,-6.15733 8.20934,-8.38 4.44666,-2.39467 8.38133,-3.592 12.144,-3.42133 3.93333,0.34266 7.012,2.05333 9.06533,5.644 2.052,3.42133 2.22267,6.84266 0.684,10.60533 -1.368,3.42133 -4.276,6.328 -8.20933,8.552 z m -0.51467,-0.684 c 3.764,-2.224 6.32933,-4.96 7.86933,-8.21067 1.53867,-3.24933 1.196,-6.49866 -0.68533,-9.74933 -1.88133,-3.24933 -4.61733,-5.13067 -8.552,-5.13067 -3.42,-0.34133 -7.35467,0.85467 -11.45867,3.07867 -3.592,2.224 -6.15866,4.78933 -7.52666,7.868 -1.71067,3.42133 -1.71067,6.67067 0.172,9.92 1.88133,3.24933 4.788,5.132 8.89333,5.30267 3.42133,0.17066 7.184,-0.684 11.288,-3.07867"
       style="fill:#000000;fill-opacity:1;fill-rule:evenodd;stroke:none;stroke-width:0.13333333"
       id="path62" /><path
       inkscape:connector-curvature="0"
       d="m 408.52336,166.67333 c 0.34134,-0.85467 0.34134,-1.71067 0.34134,-2.39467 0,-0.684 0,-1.53867 -0.512,-2.56533 l -3.25067,-10.092 -2.052,0.68533 4.104,12.656 -5.13067,1.54 -4.10399,-12.65733 -22.92,7.52666 c -0.85467,0.17067 -1.54,0.68267 -2.22267,1.02534 -0.51467,0.34266 -1.19867,1.02666 -1.71067,1.54 l -2.56666,-7.52667 c 0.684,0.51333 1.71066,0.51333 2.56666,0.34267 0.85467,0 1.368,-0.172 2.39334,-0.51334 l 30.44533,-9.92 c 1.02666,-0.34266 1.71066,-0.51333 2.05333,-0.856 1.02533,-0.51333 1.71067,-1.19733 2.22267,-1.88133 l 6.84266,21.03867 z m 1.02667,-1.02534 4.44667,-1.36933 -6.15734,-18.81467 c -0.17066,0.172 -0.856,0.684 -1.368,0.684 -0.68533,0.51334 -1.36933,0.68534 -2.56666,1.02667 l -30.10267,9.92133 c -0.85466,0.17067 -1.54,0.512 -2.224,0.512 -0.512,0.17067 -1.19733,0.17067 -1.88,0 l 1.53867,5.132 c 0.684,-0.51333 1.19733,-1.19733 1.71067,-1.368 0.684,-0.51466 1.19733,-0.68533 2.22266,-1.02666 l 23.43333,-7.52667 4.104,12.65733 3.42134,-1.19733 -4.10534,-12.65733 3.76267,-1.19734 3.42133,10.776 c 0.34267,1.02667 0.51334,1.71067 0.51334,2.224 0.17066,0.85467 0,1.368 -0.17067,2.224"
       style="fill:#000000;fill-opacity:1;fill-rule:evenodd;stroke:none;stroke-width:0.13333333"
       id="path64" /><path
       inkscape:connector-curvature="0"
       d="m 380.81403,197.63199 c -0.68266,0 -1.53866,-0.172 -2.052,-0.684 -0.51333,-0.51333 -0.684,-1.19733 -0.85466,-2.05333 0,-0.684 -0.172,-1.368 0.34133,-2.052 0.51333,-0.51333 1.19733,-1.02667 1.88267,-1.02667 0.85466,-0.17066 1.70933,0 2.22266,0.51334 0.684,0.51333 1.02667,1.19733 1.02667,1.88133 0.17067,0.856 0.17067,1.71067 -0.51333,2.224 -0.51334,0.51333 -1.19734,1.02533 -2.05334,1.19733 z m 0,-0.856 c 0.51334,-0.17066 1.02667,-0.34133 1.54,-0.85466 0.17067,-0.51334 0.34267,-1.02667 0.17067,-1.54 0,-0.512 -0.17067,-1.02534 -0.684,-1.368 -0.51333,-0.17067 -1.02667,-0.34134 -1.53867,-0.17067 -0.51333,0 -1.02666,0.17067 -1.36933,0.684 -0.17067,0.34267 -0.34133,0.85467 -0.34133,1.368 0.17066,0.51333 0.34133,1.02667 0.684,1.36933 0.51333,0.34134 1.02666,0.512 1.53866,0.512"
       style="fill:#000000;fill-opacity:1;fill-rule:evenodd;stroke:none;stroke-width:0.13333333"
       id="path66" /><path
       inkscape:connector-curvature="0"
       d="m 389.53803,239.36532 c -3.93466,-0.34133 -6.84133,-2.052 -8.89466,-4.78933 -2.052,-2.736 -2.39467,-6.15733 -2.052,-9.74933 0,-1.70934 0.34133,-3.24934 0.51333,-4.44667 0.34133,-1.19733 0.85467,-2.73733 1.53867,-4.10533 0.684,-1.02533 1.368,-2.22267 2.73733,-4.10533 l 5.644,4.96133 c -1.368,0.85467 -2.73733,1.88133 -3.592,3.42 -1.02533,1.368 -1.368,3.07866 -1.54,4.78933 -0.17067,2.05333 0.172,3.76267 1.19733,5.132 1.02667,1.53867 2.908,2.39333 5.30267,2.56533 1.54,0.17067 2.908,-0.172 4.276,-0.51333 1.19733,-0.34267 2.39467,-1.19733 3.76266,-1.88133 0.68534,-0.856 1.88267,-1.71067 3.07867,-2.908 1.368,-1.19734 2.73733,-2.56534 3.93467,-3.76267 1.70933,-1.19733 3.07866,-2.224 4.10533,-2.73733 1.53867,-0.684 3.07867,-1.196 4.61733,-1.02534 2.56534,0.34134 4.44667,1.368 5.644,2.908 1.19867,1.53867 1.54,3.42 1.36934,5.644 -0.17067,1.71067 -0.51334,3.07867 -1.02667,4.276 -0.34267,1.19734 -1.19733,2.39334 -2.224,3.76267 l -4.276,-3.93467 c 0.856,-1.02533 1.19733,-1.71066 1.36933,-1.88133 0.512,-0.684 0.684,-1.368 0.684,-1.88133 0.17067,-1.88134 -0.34266,-2.90667 -1.88133,-3.07867 -1.02667,0 -2.39467,0.684 -4.276,2.224 -1.71067,1.71067 -3.42133,3.24933 -5.132,4.96 -1.54,1.19733 -3.07867,2.39467 -4.276,3.07867 -1.71067,1.02666 -3.24933,1.88133 -4.78933,2.39466 -2.052,0.51334 -3.93333,0.85467 -5.81467,0.684 z m 0.17067,-1.02666 c 1.88133,0.172 3.76267,0 5.644,-0.512 1.54,-0.51334 3.07866,-1.19734 4.61866,-2.224 1.368,-1.02667 2.736,-1.88134 4.276,-3.07867 1.71067,-1.71067 3.76267,-3.42133 5.47334,-5.13067 1.88133,-1.54 3.24933,-2.224 4.276,-2.224 1.02666,0.17067 1.71066,0.51334 2.22266,1.19734 0.34267,0.51333 0.51334,1.53866 0.34267,2.736 0,0.51333 0,1.02666 -0.34267,1.71066 -0.17066,0.51334 -0.684,1.02667 -1.368,1.88134 l 3.07867,2.736 c 0.856,-1.02534 1.19733,-2.052 1.71067,-2.90667 0.17066,-1.02667 0.51333,-2.224 0.684,-3.76267 0.17066,-2.05333 -0.34134,-3.592 -1.19734,-4.96133 -1.19733,-1.53867 -2.908,-2.39333 -5.30133,-2.56533 -1.36933,-0.17067 -2.908,0.172 -4.448,0.856 -1.02533,0.34133 -2.224,1.53866 -3.76267,2.736 -1.368,1.19733 -2.56533,2.39466 -3.93333,3.592 -1.19733,1.19733 -2.39467,2.05333 -3.42133,2.908 -1.19733,0.85466 -2.56533,1.71066 -3.76267,2.052 -1.368,0.51333 -2.736,0.684 -4.276,0.51333 -2.56533,-0.34133 -4.61866,-1.19733 -5.81466,-2.73733 -1.19734,-1.53867 -1.71067,-3.42 -1.36934,-5.81467 0.172,-1.71067 0.51334,-3.24933 1.36934,-4.96 0.68266,-1.368 1.88,-2.56533 2.90666,-3.42 l -3.76266,-3.25066 c -0.85467,1.19733 -1.71067,2.56533 -2.052,3.42133 -0.856,1.19733 -1.54,2.56533 -1.71067,3.76266 -0.51333,1.19734 -0.856,2.736 -0.856,4.276 -0.34133,3.42134 0.34267,6.328 2.39467,8.72267 2.05333,2.56533 4.78933,4.10533 8.38133,4.44667"
       style="fill:#000000;fill-opacity:1;fill-rule:evenodd;stroke:none;stroke-width:0.13333333"
       id="path68" /><path
       inkscape:connector-curvature="0"
       d="m 371.40737,265.70532 5.47333,-23.77466 c 0.34267,0.85466 1.19733,1.54 2.052,1.88133 0.51333,0.34267 1.19867,0.34267 2.224,0.684 l 31.12933,7.184 c 1.02667,0.17067 1.88133,0.34267 2.56533,0.34267 0.856,0 1.71067,-0.34267 2.56534,-0.684 l -4.96,21.72133 -6.49867,-1.368 c 0.684,-0.85467 1.196,-1.54 1.53867,-2.052 0.34266,-0.68533 0.684,-1.54 0.856,-2.56667 l 2.39466,-10.43333 -2.224,-0.51333 -3.07866,13.51333 -5.13067,-1.02667 3.07867,-13.512 -22.92,-5.47333 -2.908,12.65733 c -0.17067,1.196 -0.34133,2.39334 -0.34133,3.24934 0.17066,0.17066 0.34133,1.02666 0.684,1.71066 z m 0.85466,-0.34133 4.79067,1.02533 c -0.34267,-0.85466 -0.51467,-1.368 -0.51467,-2.052 -0.17066,-0.684 0,-1.54 0.34267,-2.56533 l 2.908,-13.17067 24.62933,5.816 -3.07867,13.512 3.592,0.684 3.07867,-13.512 3.76267,1.02534 -2.39467,11.11866 c -0.34133,0.85467 -0.684,1.53867 -1.02533,2.052 -0.172,0.684 -0.684,1.02667 -1.19867,1.71067 l 4.61867,1.02533 4.44666,-19.156 c -0.34133,0.17067 -1.02533,0.17067 -1.53866,0 -0.684,0 -1.54,-0.17066 -2.736,-0.34133 l -30.788,-7.184 c -0.85467,-0.17067 -1.71067,-0.34267 -2.39467,-0.684 -0.51333,-0.172 -1.02666,-0.51333 -1.53866,-0.856 l -4.96134,21.552"
       style="fill:#000000;fill-opacity:1;fill-rule:evenodd;stroke:none;stroke-width:0.13333333"
       id="path70" /><path
       inkscape:connector-curvature="0"
       d="m 359.94737,292.04586 3.25066,-7.3552 c 0.34134,0.85573 1.02534,1.71093 1.53867,2.05266 0.51333,0.17134 1.368,0.68427 2.224,1.19734 l 6.84133,3.07866 4.78934,-10.946 c -0.34267,-0.17066 -0.856,-0.51333 -1.88134,-1.02666 -1.02666,-0.34134 -1.88133,-0.684 -2.224,-1.02667 -1.53866,-0.684 -3.24933,-1.19733 -4.276,-1.53867 -1.19733,-0.34266 -2.39466,-0.51333 -3.07866,-0.34266 l 3.24933,-7.35467 c 0.172,0.856 1.02667,1.368 1.54,1.88133 0.856,0.51334 1.368,1.02667 2.052,1.368 l 5.816,2.56667 c 4.276,1.88133 8.38,4.96 11.97333,8.72267 3.42,3.7628 5.81467,7.69666 7.18267,11.97266 1.36933,4.9604 1.19733,9.06507 -0.17067,12.14374 -0.17067,0.34226 -0.34267,0.5136 -0.34267,0.6844 -0.17066,0.1708 -0.34133,0.51306 -0.68399,0.8552 -0.34134,-0.6844 -0.85467,-1.36827 -1.368,-1.8812 -0.684,-0.5136 -1.53867,-0.8552 -2.224,-1.19747 L 364.7367,292.90106 c -0.684,-0.34214 -1.53867,-0.6844 -2.052,-0.6844 -1.02667,-0.34214 -1.88133,-0.51294 -2.73733,-0.1708 z m 1.36933,-1.02654 c 0.684,0 1.368,0.17134 1.88133,0.17134 0.684,0.34213 1.368,0.68386 2.052,0.8552 l 29.07734,12.99893 c 0.684,0.34227 1.53866,0.68387 1.88133,0.8552 0.684,0.34227 1.02533,0.8552 1.71067,1.36827 l 0.34133,-0.6844 c 1.19733,-2.9072 1.19733,-6.67027 -0.17067,-11.1172 -1.36933,-4.1052 -3.592,-8.03907 -7.184,-11.63067 -3.24933,-3.76267 -7.184,-6.5 -11.46,-8.38133 l -5.644,-2.56534 c -1.19733,-0.51333 -2.39466,-1.368 -3.24933,-2.56533 l -2.224,5.13067 c 0.85467,-0.17067 1.71067,0.172 2.73733,0.34266 1.02534,0.17067 2.22267,0.85467 3.76267,1.368 0.684,0.34134 1.88133,0.85467 3.24933,1.54 1.19734,0.512 1.88134,1.02534 1.88134,1.02534 l -5.47334,12.486 -7.696,-3.4208 c -0.856,-0.34214 -1.36933,-0.68387 -2.05333,-1.026 -0.684,-0.34227 -1.02533,-0.8552 -1.368,-1.19747 z m 16.248,2.5656 5.30267,-11.80093 c 1.71066,1.02533 3.42,2.736 5.30133,4.44627 2.05333,2.3948 3.764,4.78906 5.132,7.35466 1.368,2.90787 2.39467,5.47347 2.22267,8.03907 z m 1.368,-0.3416 16.24933,7.18334 c -0.34133,-2.05267 -1.02666,-4.44694 -2.56533,-7.01254 -1.19733,-2.05266 -2.908,-4.1052 -4.61867,-6.15733 -1.53866,-1.7104 -3.07866,-3.25013 -4.61733,-4.1048 l -4.448,10.09133"
       style="fill:#000000;fill-opacity:1;fill-rule:evenodd;stroke:none;stroke-width:0.13333333"
       id="path72" /><path
       inkscape:connector-curvature="0"
       d="m 341.9887,318.55679 c 5.816,-4.78907 12.48533,-7.86773 19.66933,-8.89373 7.868,-1.02654 14.368,0.51306 19.66934,4.44693 3.25066,2.22333 5.132,5.302 5.816,8.552 0.17066,3.07867 -0.684,6.32813 -2.908,9.40733 l -5.81467,7.86774 -6.15867,-4.44694 c 3.08,-1.19733 5.47334,-3.0792 6.84267,-5.1312 1.53867,-2.05266 2.22267,-3.9344 2.22267,-6.15786 -0.34134,-2.39427 -1.70934,-4.276 -3.76267,-5.81507 -3.24933,-2.22347 -7.184,-3.25 -12.828,-3.25 -4.78933,0.17133 -9.06533,1.19733 -12.31467,3.07867 l 14.368,10.43386 c 0.85467,0.51294 1.53867,1.026 2.052,1.1968 0.856,0.5136 1.71067,0.6844 2.736,0.6844 l -4.788,6.49947 c -0.34266,-1.026 -0.68533,-1.8812 -1.36933,-2.5656 -0.34133,-0.34227 -0.85467,-1.026 -1.70933,-1.53907 l -16.42,-11.97293 c -1.02667,-0.6844 -2.39467,-1.19733 -3.93467,-1.7104 -0.17067,-0.34227 -1.02533,-0.51307 -1.368,-0.6844 z m 1.54,-0.34213 c 0.512,0.34213 1.368,0.51346 2.052,1.02653 0.85467,0.34213 1.71067,0.68387 2.224,1.026 l 16.248,11.80213 c 1.02667,0.68387 1.71067,1.1968 1.88133,1.7104 0.51334,0.3416 0.684,0.68387 1.19734,1.36827 l 2.73733,-3.76307 c -0.34267,0 -1.02667,-0.34213 -1.36933,-0.6844 -0.684,-0.3416 -1.368,-0.8552 -2.39467,-1.53906 l -15.22133,-11.11774 c 2.052,-1.36813 4.96,-2.3948 8.552,-3.07853 3.42,-0.51307 6.84133,-0.8552 10.09066,-0.34227 3.42134,0.51307 6.328,1.5396 8.552,3.07867 2.39467,1.7104 3.592,3.93387 3.93334,6.32867 0.34266,2.22346 -0.34134,4.4468 -1.70934,6.49946 -0.856,1.19734 -1.71066,1.8812 -2.908,2.90787 -1.19733,0.68373 -2.39466,1.53907 -3.76266,2.05253 l 4.61733,3.24947 5.30267,-7.18387 c 2.052,-2.9072 2.908,-5.81506 2.224,-8.89373 -0.172,-2.90773 -2.05334,-5.8156 -4.96134,-7.86773 -3.42,-2.5656 -7.35466,-3.93427 -11.972,-4.276 -4.44666,-0.34214 -8.72266,-0.17134 -13.512,1.36826 -4.44666,1.53907 -8.38133,3.7624 -11.80133,6.32814"
       style="fill:#000000;fill-opacity:1;fill-rule:evenodd;stroke:none;stroke-width:0.13333333"
       id="path74" /><path
       inkscape:connector-curvature="0"
       d="m 321.2927,339.93706 5.816,-5.64427 c 0,0.8552 0.34133,1.8812 0.684,2.7364 0.34133,0.34213 0.85467,1.026 1.53867,1.8812 l 5.30266,5.30267 8.72267,-8.3812 c -0.51333,-0.34174 -0.85467,-1.02614 -1.71067,-1.71054 -0.684,-0.8552 -1.368,-1.53906 -1.71066,-1.8812 -1.196,-1.19733 -2.22267,-2.22346 -3.24934,-2.90786 -1.19733,-0.68374 -2.052,-1.36814 -2.736,-1.53894 l 5.644,-5.6444 c 0,0.85534 0.51334,1.88134 0.856,2.73654 0.512,0.51306 1.02534,1.36826 1.53867,1.8812 l 4.44667,4.44746 c 3.25066,3.4208 5.816,7.69627 7.69733,12.48587 1.71067,4.96 2.56533,9.57813 2.052,14.02506 -0.51333,4.9604 -2.052,8.552 -4.61867,10.94627 -0.17066,0.34227 -0.34133,0.34227 -0.512,0.5136 -0.17066,0.1708 -0.51333,0.51307 -1.02666,0.68387 0,-0.8552 0,-1.53907 -0.684,-2.39427 -0.34267,-0.6844 -0.856,-1.36827 -1.368,-1.88173 L 325.5687,342.50266 c -0.684,-0.6844 -1.19733,-1.36827 -1.71067,-1.5396 -0.684,-0.51307 -1.71066,-1.026 -2.56533,-1.026 z m 1.71067,-0.51307 c 0.51333,0.1708 1.368,0.8552 1.88133,1.026 0.34133,0.51307 1.02667,1.02613 1.53867,1.5396 l 22.064,22.91933 c 0.51333,0.68387 1.19866,1.19733 1.36933,1.53907 0.34133,0.68426 0.51333,1.02653 1.02667,1.7104 l 0.512,-0.51307 c 2.39466,-2.22347 3.592,-5.81507 4.10533,-10.26253 0.17067,-4.276 -0.51333,-8.7228 -2.39467,-13.34107 -1.54,-4.61773 -4.10533,-8.89373 -7.35466,-12.31466 l -4.276,-4.44734 c -1.02534,-0.8552 -1.54,-2.05213 -2.22267,-3.59173 l -3.93467,3.76307 c 0.856,0.34226 1.71067,0.8552 2.39467,1.7104 0.85467,0.51306 1.88133,1.53906 2.908,2.5656 0.684,0.68386 1.368,1.53906 2.56533,2.56573 0.85467,1.026 1.368,1.8812 1.368,1.8812 l -9.74933,9.40733 -5.81467,-6.15733 c -0.68533,-0.5136 -1.19733,-1.02653 -1.54,-1.5396 -0.51333,-0.51307 -0.684,-1.36827 -0.85466,-1.8812 z m 14.196,8.5516 9.236,-9.0652 c 1.19733,1.88187 2.224,3.9344 3.25066,6.32867 1.02534,2.90786 1.70934,5.8156 2.052,8.55213 0.17067,3.25 0,5.9864 -1.02666,8.38066 z m 1.19733,0.17133 12.31467,12.82813 c 0.684,-2.05266 0.85466,-4.61826 0.34266,-7.35466 -0.17066,-2.3948 -0.856,-5.13133 -1.88133,-7.69693 -0.856,-2.22347 -1.71067,-4.1052 -2.73733,-5.47347 l -8.03867,7.69693"
       style="fill:#000000;fill-opacity:1;fill-rule:evenodd;stroke:none;stroke-width:0.13333333"
       id="path76" /><path
       inkscape:connector-curvature="0"
       d="m 321.80603,392.27505 c -0.856,-1.19746 -1.02666,-2.5656 -0.51333,-4.44693 0.34267,-1.5396 1.19733,-3.07867 2.73733,-3.93387 l 3.59067,-2.5656 -18.30133,-26.34013 c -0.512,-0.68427 -1.02534,-1.36813 -1.53867,-1.7104 -0.684,-0.6844 -1.368,-1.19733 -2.224,-1.5396 l 6.5,-4.61813 c -0.17067,1.02653 0.17067,1.88173 0.51333,2.73693 0.17067,0.51307 0.51334,1.19734 1.19734,1.8812 l 18.30133,26.34013 4.10533,-2.7364 c 1.02534,-0.8552 2.39334,-2.22346 3.24934,-3.76306 l 3.42,4.9604 -17.44534,12.14373 c -0.684,0.51307 -1.368,1.19747 -2.05333,2.05267 0,0 -0.684,0.51293 -1.53867,1.53906 z m 0.34134,-1.19746 c 0.51333,-0.68387 1.19733,-1.36814 1.36933,-1.8812 0.684,-0.51307 1.19733,-1.026 1.70933,-1.36827 l 16.592,-11.45987 -2.56533,-3.5916 c -0.68533,1.36814 -1.54,2.7364 -2.908,3.5916 l -4.61867,3.25 -18.64266,-26.85306 c -0.684,-1.02667 -1.02667,-1.88187 -1.36934,-2.224 -0.34133,-0.51307 -0.512,-1.026 -0.512,-1.7104 l -3.93466,2.90773 c 0.34266,0.17147 1.02666,0.51307 1.54,1.19747 0.512,0.6844 1.02533,1.026 1.53866,1.7104 l 18.644,26.85306 -4.276,2.90787 c -1.19733,1.026 -2.224,1.8812 -2.56666,3.07867 -0.34134,1.5396 -0.512,2.5656 0,3.5916"
       style="fill:#000000;fill-opacity:1;fill-rule:evenodd;stroke:none;stroke-width:0.13333333"
       id="path78" /><path
       inkscape:connector-curvature="0"
       d="m 272.54603,368.84279 22.40667,-9.9204 c -0.51333,0.8552 -0.51333,1.88133 -0.34267,2.5656 0.172,0.85533 0.34267,1.53906 0.856,2.39426 l 12.99867,29.248 c 0.34267,0.8552 0.684,1.7104 1.19733,2.05254 0.51334,0.8552 1.368,1.5396 2.224,1.88133 l -20.35466,8.89424 -2.736,-5.98651 c 1.02533,0.17094 1.88133,0 2.39466,0 0.85467,0 1.53867,-0.1708 2.736,-0.68386 l 9.57867,-4.44734 -0.85467,-2.05266 -12.65733,5.6448 -2.224,-4.78947 12.65733,-5.6444 -9.57866,-21.55093 -11.80134,5.30253 c -1.19733,0.51307 -1.88133,1.19693 -2.736,1.7104 -0.172,0.17093 -0.51333,0.68387 -1.19866,1.53907 z m 1.19734,0.51293 1.88133,4.44693 c 0.34267,-0.8552 0.68533,-1.36826 1.19733,-1.88133 0.51334,-0.34213 1.19734,-0.68427 2.224,-1.026 l 12.31467,-5.64427 10.26267,23.09014 -12.65734,5.64426 1.54,3.4208 12.656,-5.64426 1.54,3.59173 -10.43333,4.61813 c -0.85467,0.51307 -1.71067,0.6844 -2.224,0.6844 -0.684,0.1708 -1.368,0 -2.052,-0.17133 l 2.052,4.4474 17.96,-7.8682 c -0.34267,-0.34173 -0.856,-1.02613 -1.02667,-1.36827 -0.51333,-0.51306 -0.85466,-1.36826 -1.19733,-2.39426 l -12.99867,-28.90574 c -0.34266,-0.8552 -0.684,-1.5396 -0.684,-2.3948 -0.34266,-0.51306 -0.34266,-1.026 -0.172,-1.7104 l -20.18266,9.06507"
       style="fill:#000000;fill-opacity:1;fill-rule:evenodd;stroke:none;stroke-width:0.13333333"
       id="path80" /><path
       inkscape:connector-curvature="0"
       d="m 253.04737,377.39479 c -0.17067,-0.6844 -0.17067,-1.7104 0.172,-2.22347 0.512,-0.68427 1.19733,-1.02653 2.052,-1.19733 0.684,-0.17134 1.368,-0.17134 2.052,0.1708 0.684,0.51306 1.19733,1.19746 1.36933,1.88186 0.17067,0.8552 0,1.7104 -0.34266,2.22334 -0.34267,0.8552 -1.19734,1.19693 -1.88134,1.36826 -0.85466,0.1708 -1.54,0.1708 -2.224,-0.34213 -0.684,-0.51307 -1.02533,-1.02613 -1.19733,-1.88133 z m 0.684,-0.17134 c 0.172,0.5136 0.34267,0.8552 0.856,1.3688 0.684,0.1708 1.19733,0.3416 1.71067,0.1708 0.51333,-0.1708 1.02533,-0.34213 1.19733,-0.8552 0.17067,-0.51306 0.34133,-1.19746 0.17067,-1.7104 -0.17067,-0.51306 -0.34267,-0.8552 -0.85467,-1.19746 -0.34267,-0.1708 -0.856,-0.34214 -1.36933,-0.1708 -0.51334,0.1708 -1.02534,0.34213 -1.368,0.8552 -0.34267,0.34226 -0.51334,1.026 -0.34267,1.53906"
       style="fill:#000000;fill-opacity:1;fill-rule:evenodd;stroke:none;stroke-width:0.13333333"
       id="path82" /></g><path
     id="path84"
     style="fill:#13de1a;fill-opacity:1;fill-rule:evenodd;stroke:none;stroke-width:0.13333333"
     d="m 249.7327,283.49732 c -1.05333,0.57334 -3.74666,0.57334 -5.66666,0.28 -6.33334,-0.85333 -23.42667,9.02694 -14.01334,16.79974 6.24,5.09386 8.93334,7.0136 10.26667,12.38706 1.16,4.7068 12.2,7.2932 15.36,5.1864 3.84,-2.5864 7.10667,-8.45306 7.58667,-11.13333 0.57333,-2.6932 2.69333,-5.0932 2.69333,-0.4796 0,4.6 1.34666,13.23947 4.89333,16.70613 l 4.02667,-3.74626 c -1.92,-1.9204 -5.94667,-11.33334 -5.94667,-13.25374 0,-1.91973 2.4,-6.23946 5.09333,-2.6796 2.77334,3.45307 3.36,6.13334 5.76,10.45307 2.4,4.42653 14.4,8.26667 16.21334,3.26667 1.82666,-5.37347 6.53333,-9.21294 12.68,-12.66667 7.58666,-4.31973 -2.4,-21.59987 -15.93334,-22.1732 -9.8,-0.38667 0.66667,-3.84 -0.58666,-3.46667 2.69333,-0.85333 9.32,-4.21333 14.30666,-6.52 5.96,-2.69333 6.81334,-12.38666 3.84,-14.78666 -2.97333,-2.49334 -8.25333,-5.76 -10.26666,-9.21334 -13.25334,-22.46666 -25.44,2.4 -25.64,12.09334 -0.37334,9.78666 -4.41334,3.54666 -3.84,0 0.58666,-3.45334 -1.33334,-11.04 -4.02667,-16.13334 -2.69333,-5.17333 -16.8,-8.16 -19.97333,-1.92 -3.25333,6.24 -7.57333,10.46667 -12.18667,14.02667 -4.61333,3.54667 -6.72,13.24 1.05334,17.85333 7.88,4.6 11.81333,4.98667 14.6,5.94667 1.62666,0.48 -0.29334,3.17333 -0.29334,3.17333"
     inkscape:connector-curvature="0" /><path
     id="path86"
     style="fill:#f43a1b;fill-opacity:1;fill-rule:evenodd;stroke:none;stroke-width:0.13333333"
     d="m 133.95937,153.12399 c -0.2932,15.26667 5.28027,30.62667 18.42667,40.04 0.0933,0 0.57333,-0.48 0.57333,-0.58666 -1.72,-3.45334 -2.29333,-7.09334 -2.77333,-10.84 -0.38667,-2.97334 0.37333,-6.14667 3.25333,-6.92 2.4,-0.66667 5.48,-0.66667 7.10667,2.30666 1.73333,-3.16 0.57333,-6.90666 2.01333,-10.26666 1.16,-2.49334 1.73333,-5.18667 4.04,-6.62667 0.18667,-0.0933 1.72,-0.48 1.72,0.48 0.2,3.65333 0,7.29333 -0.66667,11.13333 -0.57333,2.88 1.82667,6.53334 -1.34666,8.25334 -0.57334,0.38666 -0.86667,1.06666 -1.44,1.25333 1.16,2.4 2.69333,4.70667 2.21333,7.58667 -0.38667,2.30666 0,4.6 -0.2,6.90666 -0.18667,2.4 -1.14667,4.89334 0.58667,7.2 3.06666,-1.14666 6.52,1.25334 9.49333,-0.96 -0.76,-3.06666 -0.0933,-6.24 -0.18667,-9.21333 -0.0933,-2.97333 -1.82666,-6.42667 0.86667,-9.21333 0.66667,0.86666 0.86667,-0.29334 0.86667,-0.29334 0.76,-2.10666 -1.82667,-3.16 -2.12,-4.98666 -0.38667,-3.74667 -0.48,-7.4 -0.38667,-11.13334 0,-2.30666 -1.33333,-5.18666 0.96,-7.2 -0.66667,1.24 1.06667,0.48 1.34667,1.24 2.01333,4.8 4.32,9.21334 6.33333,13.92 1.34667,3.17334 0.77333,6.92 2.50667,10.08 1.72,-2.88 0.96,-6.04 1.14666,-9.21333 0.48,-5.57333 -1.44,-10.74667 -3.36,-16.02667 0,-0.2 0.48,-0.58666 0.57334,-0.58666 3.08,1.73333 5.85333,3.36 8.93333,5.38666 0.0933,0.0933 0.57333,-0.38666 0.48,-0.48 -0.77333,-1.64 -0.48,-3.74666 -2.21333,-5 0.57333,-0.57333 -0.28,-1.62666 0.68,-1.92 2.58666,-0.57333 4.69333,-1.72 6.90666,-2.97333 -2.10666,-1.62667 -4.8,-2.01333 -6.90666,-3.65333 1.14666,-1.14667 0.76,-2.88 1.53333,-4.32 0,-0.0933 0,-1.24 -0.48,-1.05334 -0.68,0.2 -1.05333,1.05334 -1.73333,1.44 -2.78667,1.44 -5.85334,2.01334 -8.82667,2.97334 3.36,-5.08 4.98667,-11.04 5.18667,-17.08 0.0933,-3.36 -0.38667,-6.72 -1.92,-9.8 -0.86667,5.09333 -0.86667,10.37333 -3.46667,14.98666 -1.72,2.97334 -2.68,7 -6.42667,7.68 -1.25333,0.18667 -0.86666,-1.82666 -0.66666,-2.6 0.66666,-3.93333 2.77333,-7.38666 2.88,-11.22666 0,-1.25334 0.28,-2.4 0.28,-3.65334 0.48,-7.38666 -2.2,-14.88 -6.33334,-20.92 -0.57333,0.85334 -1.44,1.72 -1.82666,2.68 -1.53334,4.22667 -4.22667,7.97334 -4.6,12.68 -0.48,7.48 0,14.88 2.4,22.08 0.66666,1.81334 0,3.45334 -1.64,4.02667 -2.01334,0.77333 -3.36,-0.86667 -4.50667,-2.49333 -2.6,-3.84 -1.53333,-8.36 -3.65333,-12.09334 -1.44,2.29334 -5.08,2.58667 -6.81334,0.28 -1.25333,-1.72 -1.34666,-3.84 -1.25333,-5.85333 0.2,-3.93333 0.38667,-7.77333 2.02667,-11.52 0.0933,-0.0933 -0.38667,-0.57333 -0.48,-0.57333 -2.4,1.82666 -4.8,3.26666 -6.53334,5.94666 -1.44,2.21334 -3.36,3.65334 -4.61346,5.85334 -1.62654,2.88 -3.25307,5.66666 -4.31974,8.54666 -1.62653,4.22667 -3.35986,8.54667 -3.45373,13.05334 0,1.16 -0.0932,2.21333 -0.1864,3.26666"
     inkscape:connector-curvature="0" /><path
     id="path88"
     style="fill:#231f20;fill-opacity:1;fill-rule:evenodd;stroke:none;stroke-width:0.13333333"
     d="m 213.43937,74.497329 0.29333,146.026661 h 143.52 C 359.46603,149.37733 309.34603,79.110662 213.43937,74.497329"
     inkscape:connector-curvature="0" /><path
     id="path90"
     style="fill:none;stroke:#231f20;stroke-width:0.29333332;stroke-linecap:butt;stroke-linejoin:miter;stroke-miterlimit:11.47369957;stroke-dasharray:none;stroke-opacity:1"
     d="m 213.43937,74.497329 0.29333,146.026661 h 143.52 C 359.46603,149.37733 309.34603,79.110662 213.43937,74.497329 Z"
     inkscape:connector-curvature="0" /><path
     id="path92"
     style="fill:#231f20;fill-opacity:1;fill-rule:evenodd;stroke:none;stroke-width:0.13333333"
     d="M 215.6527,355.77705 V 219.08399 H 76.452573 c 2.973467,63.45333 47.613597,133.6264 139.200127,136.69306"
     inkscape:connector-curvature="0" /><path
     id="path94"
     style="fill:none;stroke:#231f20;stroke-width:0.29333332;stroke-linecap:butt;stroke-linejoin:miter;stroke-miterlimit:11.47369957;stroke-dasharray:none;stroke-opacity:1"
     d="M 215.6527,355.77705 V 219.08399 H 76.452573 c 2.973467,63.45333 47.613597,133.6264 139.200127,136.69306 z"
     inkscape:connector-curvature="0" /></svg>